<?xml version="1.0" encoding="utf-8"?>
<!-- Generator: Adobe Illustrator 16.0.0, SVG Export Plug-In . SVG Version: 6.00 Build 0)  -->
<!DOCTYPE svg PUBLIC "-//W3C//DTD SVG 1.1//EN" "http://www.w3.org/Graphics/SVG/1.1/DTD/svg11.dtd">
<svg version="1.1" id="Layer_1" xmlns="http://www.w3.org/2000/svg" xmlns:xlink="http://www.w3.org/1999/xlink" x="0px" y="0px"
	 width="100px" height="100px" viewBox="0 0 100 100" enable-background="new 0 0 100 100" xml:space="preserve">
<g>
	<defs>
		<path id="SVGID_1_" d="M50,0c27.613,0,50,22.386,50,50s-22.387,50-50,50C22.386,100,0,77.614,0,50S22.386,0,50,0z"/>
	</defs>
	<clipPath id="SVGID_2_">
		<use xlink:href="#SVGID_1_"  overflow="visible"/>
	</clipPath>
	<g clip-path="url(#SVGID_2_)">
		<path fill-rule="evenodd" clip-rule="evenodd" fill="#008300" d="M126.179,103.012c-50.111,0-100.223,0-150.333,0.006
			c-0.238,0-0.291-0.055-0.291-0.291c0.006-34.61,0.006-69.221,0-103.831c0-0.237,0.053-0.291,0.291-0.291
			c50.11,0.006,100.222,0.006,150.333,0.006C126.179,33.411,126.179,68.211,126.179,103.012z M114.208,52.254
			c-0.224-0.157-0.443-0.31-0.662-0.463c-2.006-1.416-4.011-2.83-6.018-4.245c-2.005-1.415-4.013-2.828-6.017-4.246
			c-1.896-1.339-3.786-2.685-5.681-4.026c-1.28-0.906-2.561-1.81-3.844-2.71c-2.109-1.48-4.226-2.954-6.333-4.438
			c-2.167-1.525-4.328-3.061-6.493-4.59c-2.005-1.416-4.012-2.831-6.018-4.245c-1.998-1.408-3.999-2.813-5.995-4.224
			c-1.541-1.09-3.074-2.191-4.617-3.278c-1.088-0.766-2.189-1.511-3.276-2.275c-1.662-1.17-3.317-2.349-4.976-3.522
			c-1.085-0.769-2.175-1.533-3.256-2.308c-0.151-0.107-0.242-0.09-0.385,0.014c-0.889,0.653-1.787,1.294-2.682,1.94
			c-1.08,0.779-2.158,1.56-3.236,2.34c-1.279,0.926-2.556,1.854-3.835,2.779c-1.079,0.78-2.162,1.555-3.241,2.334
			c-1.296,0.937-2.591,1.876-3.886,2.814c-1.07,0.774-2.142,1.547-3.212,2.322c-1.287,0.931-2.574,1.863-3.861,2.794
			c-1.079,0.781-2.159,1.561-3.237,2.341c-1.37,0.992-2.74,1.986-4.111,2.979c-1.078,0.781-2.157,1.561-3.236,2.341
			c-1.279,0.925-2.556,1.853-3.836,2.778c-1.079,0.779-2.16,1.556-3.239,2.336c-1.288,0.93-2.574,1.863-3.861,2.795
			c-1.079,0.78-2.159,1.56-3.237,2.34c-1.288,0.931-2.575,1.862-3.862,2.794c-1.079,0.78-2.158,1.561-3.236,2.342
			c-1.279,0.926-2.558,1.851-3.835,2.778c-0.647,0.469-1.292,0.939-1.934,1.406c0.566,0.4,1.109,0.794,1.662,1.173
			c1.777,1.218,3.56,2.427,5.335,3.646c1.386,0.95,2.762,1.916,4.148,2.867c1.836,1.259,3.679,2.505,5.516,3.764
			c1.055,0.723,2.099,1.461,3.154,2.186c1.776,1.218,3.56,2.425,5.335,3.644c1.395,0.957,2.775,1.935,4.175,2.884
			c1.425,0.966,2.842,1.944,4.26,2.921c1.409,0.972,2.819,1.94,4.232,2.906c1.822,1.243,3.643,2.489,5.456,3.746
			c1.406,0.975,2.819,1.94,4.231,2.908c1.759,1.206,3.521,2.41,5.28,3.617c1.402,0.963,2.8,1.933,4.204,2.896
			c1.521,1.042,3.048,2.079,4.567,3.124c0.16,0.11,0.274,0.118,0.438,0.006c1.306-0.902,2.637-1.769,3.95-2.66
			c2.617-1.776,5.268-3.503,7.889-5.275c2.597-1.754,5.22-3.469,7.809-5.234c2.674-1.822,5.38-3.596,8.069-5.394
			c2.613-1.747,5.223-3.502,7.834-5.251c2.68-1.795,5.363-3.586,8.041-5.383c2.611-1.752,5.239-3.478,7.838-5.246
			c2.616-1.778,5.261-3.513,7.893-5.269C111.65,53.975,112.922,53.117,114.208,52.254z"/>
		<path fill-rule="evenodd" clip-rule="evenodd" fill="#FEFEFE" d="M126.179,103.012c0-34.801,0-69.601,0-104.401
			c0.02,0.014,0.065-0.032,0.063,0.031c-0.003,0.084-0.001,0.169-0.001,0.253c0,34.61,0,69.221-0.003,103.831
			C126.238,102.819,126.311,102.94,126.179,103.012z"/>
		<path fill-rule="evenodd" clip-rule="evenodd" fill="#FEFE00" d="M114.208,52.254c-1.286,0.863-2.558,1.721-3.832,2.572
			c-2.632,1.756-5.276,3.49-7.893,5.269c-2.599,1.769-5.227,3.494-7.838,5.246c-2.678,1.797-5.361,3.588-8.041,5.383
			c-2.611,1.749-5.221,3.504-7.834,5.251c-2.689,1.798-5.396,3.571-8.069,5.394c-2.589,1.766-5.212,3.48-7.809,5.234
			c-2.621,1.772-5.271,3.499-7.889,5.275c-1.313,0.892-2.645,1.758-3.95,2.66c-0.163,0.112-0.277,0.104-0.438-0.006
			c-1.52-1.045-3.046-2.082-4.567-3.124c-1.403-0.963-2.801-1.933-4.204-2.896c-1.759-1.207-3.521-2.411-5.28-3.617
			c-1.412-0.968-2.825-1.934-4.231-2.908c-1.813-1.257-3.633-2.503-5.456-3.746c-1.413-0.966-2.823-1.935-4.232-2.906
			c-1.418-0.977-2.835-1.955-4.26-2.921c-1.4-0.949-2.78-1.927-4.175-2.884c-1.776-1.219-3.559-2.426-5.335-3.644
			c-1.055-0.725-2.099-1.463-3.154-2.186c-1.836-1.259-3.68-2.505-5.516-3.764c-1.387-0.951-2.763-1.917-4.148-2.867
			c-1.776-1.219-3.559-2.428-5.335-3.646c-0.553-0.379-1.096-0.772-1.662-1.173c0.642-0.467,1.287-0.938,1.934-1.406
			c1.278-0.927,2.557-1.852,3.835-2.778c1.079-0.781,2.158-1.562,3.236-2.342c1.288-0.932,2.575-1.863,3.862-2.794
			c1.079-0.78,2.158-1.56,3.237-2.34c1.287-0.932,2.574-1.865,3.861-2.795c1.079-0.78,2.161-1.557,3.239-2.336
			c1.28-0.925,2.557-1.853,3.836-2.778c1.079-0.781,2.158-1.561,3.236-2.341c1.371-0.993,2.741-1.987,4.111-2.979
			c1.078-0.781,2.158-1.561,3.237-2.341c1.287-0.931,2.574-1.863,3.861-2.794c1.071-0.774,2.142-1.548,3.212-2.322
			c1.295-0.938,2.59-1.877,3.886-2.814c1.079-0.78,2.162-1.555,3.241-2.334c1.279-0.925,2.557-1.853,3.835-2.779
			c1.078-0.781,2.156-1.561,3.236-2.34c0.895-0.646,1.793-1.288,2.682-1.94c0.143-0.104,0.233-0.121,0.385-0.014
			c1.081,0.775,2.171,1.54,3.256,2.308c1.658,1.174,3.313,2.353,4.976,3.522c1.087,0.765,2.188,1.509,3.276,2.275
			c1.543,1.087,3.076,2.188,4.617,3.278c1.996,1.411,3.997,2.815,5.995,4.224c2.006,1.414,4.013,2.829,6.018,4.245
			c2.165,1.529,4.326,3.065,6.493,4.59c2.107,1.484,4.224,2.958,6.333,4.438c1.283,0.9,2.563,1.804,3.844,2.71
			c1.895,1.341,3.785,2.687,5.681,4.026c2.004,1.417,4.012,2.831,6.017,4.246c2.007,1.415,4.012,2.829,6.018,4.245
			C113.765,51.944,113.984,52.097,114.208,52.254z M24.311,40.829c-0.167,0.08-0.374,0.102-0.423,0.339
			c-0.032,0.15-0.1,0.291-0.151,0.437c-0.474,1.35-0.832,2.729-1.085,4.139c-0.042,0.237,0.021,0.24,0.192,0.224
			c0.066,0.243-0.017,0.485-0.067,0.708c-0.236,1.067-0.295,2.152-0.354,3.234c-0.036,0.651-0.109,1.302-0.027,1.965
			c0.076,0.617,0.111,1.246,0.131,1.868c0.028,0.874,0.201,1.726,0.346,2.577c0.23,1.347,0.551,2.678,0.996,3.975
			c0.443,1.292,0.949,2.559,1.552,3.785c0.7,1.426,1.523,2.776,2.432,4.078c0.674,0.967,1.397,1.893,2.193,2.762
			c0.552,0.602,1.123,1.183,1.73,1.729c0.411,0.367,0.796,0.771,1.241,1.094c1.037,0.748,2.058,1.519,3.159,2.18
			c1.385,0.833,2.779,1.642,4.284,2.239c1.249,0.494,2.495,0.997,3.815,1.283c0.548,0.117,1.084,0.311,1.638,0.381
			c0.532,0.069,1.06,0.164,1.594,0.221c0.665,0.072,1.313,0.293,1.996,0.239c0.167-0.015,0.339-0.018,0.505,0.003
			c0.674,0.083,1.353,0.159,2.028,0.111c0.718-0.051,1.435-0.125,2.154-0.113c0.222,0.003,0.438-0.015,0.647-0.073
			c0.369-0.101,0.749-0.129,1.124-0.183c0.512-0.074,1.045-0.09,1.529-0.22c1.071-0.286,2.174-0.465,3.217-0.859
			c0.779-0.295,1.585-0.537,2.335-0.894c2.025-0.961,4.006-2.002,5.82-3.338c1.382-1.017,2.682-2.117,3.855-3.367
			c0.805-0.855,1.58-1.731,2.294-2.667c0.873-1.142,1.63-2.356,2.321-3.611c0.798-1.449,1.428-2.979,1.986-4.534
			c0.186-0.516,0.407-1.025,0.451-1.583c0.124,0.065,0.204,0.207,0.272-0.098c0.131-0.586,0.142-1.187,0.292-1.768
			c0.26-1.008,0.413-2.039,0.559-3.068c0.034-0.243,0.273-0.578-0.11-0.785c0.049-0.58,0.074-1.163,0.117-1.744
			c0.048-0.664-0.092-1.331-0.104-1.995c-0.025-1.249-0.258-2.465-0.453-3.689c-0.198-1.243-0.503-2.462-0.894-3.656
			c-0.493-1.502-1.115-2.953-1.815-4.371c-0.607-1.232-1.371-2.369-2.152-3.497c-0.93-1.343-2.011-2.557-3.133-3.732
			c-0.604-0.631-1.289-1.185-1.943-1.767c-0.746-0.666-1.551-1.26-2.383-1.81c-1.251-0.826-2.529-1.605-3.901-2.239
			c-1.096-0.505-2.2-0.978-3.337-1.363c-1.512-0.512-3.064-0.865-4.649-1.101c-1.107-0.165-2.216-0.308-3.33-0.351
			c-1.275-0.05-2.555-0.029-3.831,0.105c-0.853,0.089-1.706,0.192-2.546,0.342c-1.355,0.241-2.701,0.553-4.005,1.004
			c-1.281,0.443-2.537,0.95-3.755,1.55c-1.391,0.685-2.668,1.546-3.951,2.411c-1.293,0.872-2.454,1.894-3.601,2.938
			c-0.463,0.422-0.832,0.938-1.271,1.38c-0.948,0.95-1.689,2.057-2.437,3.155c-0.787,1.155-1.542,2.334-2.093,3.632
			C24.979,39.234,24.565,39.998,24.311,40.829z"/>
		<path fill-rule="evenodd" clip-rule="evenodd" fill="#000083" d="M79.771,58.957c-0.044,0.558-0.266,1.067-0.451,1.583
			c-0.559,1.556-1.188,3.085-1.986,4.534c-0.691,1.255-1.448,2.47-2.321,3.611c-0.714,0.936-1.489,1.812-2.294,2.667
			c-1.174,1.25-2.474,2.351-3.855,3.367c-1.814,1.336-3.795,2.377-5.82,3.338c-0.75,0.356-1.556,0.599-2.335,0.894
			c-1.043,0.395-2.146,0.573-3.217,0.859c-0.484,0.13-1.018,0.146-1.529,0.22c-0.375,0.054-0.755,0.082-1.124,0.183
			c-0.21,0.059-0.426,0.076-0.647,0.073c-0.72-0.012-1.437,0.063-2.154,0.113c-0.676,0.048-1.354-0.028-2.028-0.111
			c-0.166-0.021-0.338-0.018-0.505-0.003c-0.683,0.054-1.331-0.167-1.996-0.239c-0.534-0.057-1.063-0.151-1.594-0.221
			c-0.553-0.07-1.09-0.264-1.638-0.381c-1.321-0.286-2.567-0.789-3.815-1.283c-1.505-0.598-2.899-1.406-4.284-2.239
			c-1.101-0.661-2.122-1.432-3.159-2.18c-0.445-0.322-0.831-0.727-1.241-1.094c-0.607-0.546-1.179-1.127-1.73-1.729
			c-0.796-0.869-1.519-1.795-2.193-2.762c-0.909-1.302-1.732-2.652-2.432-4.078c-0.603-1.227-1.109-2.493-1.552-3.785
			c-0.445-1.297-0.766-2.628-0.996-3.975c-0.145-0.852-0.318-1.703-0.346-2.577c-0.02-0.622-0.055-1.251-0.131-1.868
			c-0.082-0.663-0.008-1.313,0.027-1.965c0.06-1.083,0.118-2.167,0.354-3.234c0.05-0.223,0.133-0.465,0.067-0.708
			c0.339-0.063,0.674-0.156,1.015-0.184c0.69-0.056,1.361-0.226,2.052-0.288c0.3-0.027,0.621-0.042,0.914-0.127
			c0.459-0.132,0.935-0.144,1.399-0.206c0.699-0.095,1.411-0.126,2.12-0.159c0.342-0.016,0.687-0.029,1.03-0.054
			c1.078-0.077,2.154-0.211,3.232-0.24c2.027-0.053,4.054-0.005,6.078,0.117c0.323,0.02,0.647,0.035,0.968,0.047
			c0.906,0.034,1.805,0.138,2.706,0.216c0.482,0.041,0.966,0.074,1.447,0.16c0.668,0.12,1.348,0.184,2.021,0.261
			c0.555,0.063,1.114,0.117,1.655,0.233c0.982,0.211,1.968,0.389,2.96,0.542c0.293,0.046,0.59,0.087,0.876,0.167
			c0.568,0.16,1.144,0.294,1.714,0.447c0.944,0.252,1.891,0.494,2.831,0.767c1.222,0.354,2.424,0.772,3.641,1.14
			c0.636,0.192,1.219,0.525,1.84,0.743c1.223,0.426,2.437,0.87,3.604,1.424c1.552,0.736,3.101,1.48,4.594,2.336
			c1.616,0.926,3.19,1.915,4.727,2.968C77.483,57.108,78.647,58.005,79.771,58.957z M34.562,64.966
			c0.02,0.06,0.059,0.068,0.111,0.043c-0.02-0.028-0.039-0.058-0.058-0.086c-0.24-0.385,0.023-0.572,0.376-0.793
			c-0.262,0-0.468,0.054-0.622-0.014c-0.167-0.073-0.12-0.339-0.304-0.577c0.026,0.564-0.267,0.674-0.696,0.616
			c0.425,0.193,0.513,0.479,0.279,0.885c0.094-0.025,0.137-0.022,0.15-0.042c0.19-0.285,0.407-0.265,0.647-0.066
			C34.476,64.955,34.523,64.956,34.562,64.966z M27.535,60.978c0.02,0.06,0.059,0.068,0.111,0.044
			c-0.02-0.029-0.038-0.058-0.058-0.087c-0.24-0.385,0.023-0.573,0.376-0.792c-0.262,0-0.468,0.052-0.623-0.015
			c-0.167-0.072-0.12-0.34-0.304-0.577c0.027,0.563-0.267,0.674-0.696,0.616c0.425,0.192,0.513,0.479,0.28,0.884
			c0.093-0.024,0.137-0.022,0.149-0.042c0.19-0.285,0.408-0.265,0.648-0.065C27.448,60.967,27.496,60.967,27.535,60.978z
			 M50.517,60.978c0.02,0.06,0.059,0.068,0.111,0.044c-0.02-0.029-0.039-0.058-0.059-0.087c-0.239-0.385,0.023-0.573,0.377-0.792
			c-0.263,0-0.468,0.052-0.623-0.015c-0.167-0.072-0.119-0.34-0.304-0.577c0.026,0.563-0.267,0.674-0.695,0.616
			c0.425,0.192,0.514,0.479,0.279,0.885c0.094-0.025,0.138-0.023,0.15-0.043c0.19-0.285,0.408-0.265,0.647-0.065
			C50.43,60.967,50.479,60.967,50.517,60.978z M35.512,61.928c0.019,0.059,0.059,0.068,0.111,0.043
			c-0.02-0.029-0.039-0.058-0.058-0.086c-0.24-0.386,0.023-0.574,0.376-0.793c-0.262,0-0.468,0.053-0.622-0.015
			c-0.167-0.072-0.12-0.34-0.304-0.577c0.027,0.564-0.266,0.675-0.695,0.616c0.425,0.192,0.513,0.479,0.28,0.885
			c0.093-0.025,0.137-0.023,0.149-0.042c0.191-0.284,0.408-0.266,0.648-0.066C35.425,61.916,35.473,61.916,35.512,61.928z
			 M33.613,57.749c0.02,0.06,0.058,0.067,0.111,0.043c-0.019-0.028-0.039-0.058-0.058-0.086c-0.24-0.386,0.023-0.573,0.376-0.793
			c-0.262,0-0.468,0.054-0.623-0.015c-0.167-0.072-0.12-0.34-0.303-0.577c0.026,0.564-0.267,0.674-0.696,0.616
			c0.425,0.192,0.513,0.479,0.28,0.885c0.093-0.025,0.137-0.023,0.149-0.042c0.191-0.285,0.408-0.265,0.648-0.066
			C33.526,57.737,33.574,57.737,33.613,57.749z M26.593,46.007c-0.151,0.36-0.27,0.637-0.383,0.917
			c-0.05,0.124-0.108,0.197-0.268,0.189c-0.324-0.017-0.652-0.029-0.961,0.089c0.082,0.071,0.162,0.147,0.25,0.213
			c0.213,0.159,0.516,0.269,0.621,0.479c0.106,0.213-0.097,0.498-0.139,0.754c-0.015,0.09-0.08,0.167-0.057,0.294
			c0.265-0.172,0.522-0.328,0.767-0.502c0.122-0.087,0.209-0.086,0.334-0.002c0.239,0.163,0.495,0.304,0.779,0.477
			c-0.012-0.325-0.165-0.549-0.251-0.793c-0.059-0.167-0.054-0.254,0.124-0.36c0.267-0.159,0.497-0.378,0.729-0.563
			c-0.333-0.122-0.678-0.098-1.02-0.088c-0.149,0.004-0.172-0.1-0.206-0.185C26.808,46.653,26.719,46.374,26.593,46.007z
			 M48.421,59.928c0.011-0.347-0.197-0.588-0.26-0.872c-0.023-0.109-0.039-0.168,0.051-0.232c0.279-0.2,0.557-0.401,0.862-0.623
			c-0.275-0.013-0.5-0.117-0.739-0.075c-0.355,0.063-0.553-0.058-0.609-0.438c-0.029-0.2-0.147-0.386-0.253-0.646
			c-0.119,0.3-0.214,0.539-0.31,0.779c-0.08,0.201-0.174,0.354-0.446,0.309c-0.284-0.048-0.569,0.011-0.863,0.084
			c0.275,0.206,0.539,0.413,0.813,0.604c0.115,0.08,0.127,0.14,0.081,0.277c-0.092,0.272-0.138,0.561-0.21,0.87
			c0.268-0.171,0.518-0.313,0.745-0.483c0.14-0.104,0.233-0.121,0.384-0.013C47.896,59.635,48.148,59.766,48.421,59.928z
			 M49.352,53.789c0.258,0.198,0.506,0.412,0.778,0.591c0.127,0.083,0.103,0.131,0.089,0.26c-0.029,0.279-0.251,0.518-0.179,0.845
			c0.241-0.157,0.47-0.291,0.68-0.447c0.132-0.099,0.22-0.087,0.36-0.007c0.248,0.141,0.463,0.348,0.8,0.446
			c-0.106-0.316-0.18-0.59-0.293-0.848c-0.056-0.127-0.04-0.17,0.068-0.244c0.274-0.189,0.537-0.397,0.813-0.605
			c-0.297-0.076-0.582-0.114-0.869-0.084c-0.19,0.021-0.273-0.06-0.336-0.228c-0.1-0.271-0.224-0.533-0.363-0.863
			c-0.146,0.347-0.26,0.626-0.383,0.9c-0.037,0.085-0.051,0.194-0.199,0.19C49.997,53.687,49.672,53.666,49.352,53.789z
			 M70.711,60.846c0.294,0.228,0.544,0.442,0.817,0.624c0.134,0.089,0.143,0.146,0.097,0.294c-0.089,0.295-0.135,0.604-0.197,0.903
			c0.098,0.029,0.13-0.037,0.174-0.078c0.608-0.561,0.668-0.567,1.358-0.153c0.062,0.037,0.115,0.087,0.179,0.119
			c0.048,0.024,0.095,0.107,0.156,0.034c0.033-0.039,0.019-0.093-0.001-0.146c-0.087-0.249-0.151-0.509-0.257-0.749
			c-0.05-0.11-0.018-0.154,0.052-0.205c0.275-0.203,0.554-0.401,0.888-0.643c-0.345,0-0.627-0.027-0.901,0.008
			c-0.283,0.036-0.379-0.11-0.459-0.331c-0.088-0.239-0.195-0.472-0.321-0.771c-0.124,0.36-0.218,0.637-0.314,0.915
			c-0.044,0.128-0.115,0.191-0.271,0.184C71.395,60.835,71.078,60.846,70.711,60.846z M41.222,52.917
			c-0.03-0.359-0.182-0.599-0.272-0.853c-0.062-0.175,0.002-0.247,0.11-0.331c0.256-0.198,0.513-0.394,0.833-0.638
			c-0.334,0-0.596-0.027-0.849,0.008c-0.282,0.037-0.381-0.107-0.462-0.328c-0.089-0.24-0.195-0.474-0.322-0.778
			c-0.129,0.328-0.222,0.575-0.325,0.817c-0.072,0.171-0.143,0.322-0.397,0.29c-0.271-0.036-0.552-0.009-0.9-0.009
			c0.333,0.256,0.602,0.459,0.866,0.666c0.093,0.072,0.107,0.141,0.083,0.283c-0.045,0.275-0.254,0.517-0.182,0.847
			c0.25-0.165,0.482-0.312,0.705-0.47c0.11-0.08,0.197-0.078,0.309-0.004C40.664,52.581,40.917,52.729,41.222,52.917z
			 M31.101,59.911c0.02-0.018,0.039-0.034,0.058-0.052c-0.089-0.287-0.163-0.582-0.275-0.862c-0.051-0.127-0.038-0.17,0.069-0.243
			c0.273-0.188,0.535-0.396,0.848-0.63c-0.366,0-0.678-0.011-0.989,0.003c-0.175,0.008-0.252-0.053-0.301-0.223
			c-0.079-0.273-0.193-0.536-0.316-0.87c-0.146,0.354-0.262,0.635-0.377,0.915c-0.051,0.124-0.124,0.188-0.276,0.179
			c-0.296-0.017-0.595-0.004-0.931-0.004c0.283,0.221,0.507,0.435,0.768,0.588c0.177,0.104,0.181,0.193,0.129,0.36
			c-0.09,0.287-0.155,0.581-0.255,0.966c0.286-0.281,0.556-0.41,0.792-0.589c0.108-0.082,0.196-0.078,0.309-0.003
			C30.596,59.608,30.85,59.756,31.101,59.911z M52.705,63.822c-0.153,0-0.238-0.015-0.318,0.002
			c-0.62,0.122-1.026-0.073-1.124-0.742c-0.01-0.06-0.021-0.13-0.058-0.172c-0.045-0.051-0.027-0.173-0.119-0.152
			c-0.05,0.012-0.093,0.101-0.116,0.163c-0.084,0.218-0.163,0.438-0.233,0.659c-0.057,0.181-0.153,0.262-0.355,0.246
			c-0.277-0.02-0.558-0.004-0.881-0.004c0.296,0.229,0.542,0.44,0.811,0.619c0.114,0.077,0.129,0.108,0.102,0.254
			c-0.057,0.304-0.233,0.576-0.228,0.93c0.239-0.221,0.501-0.36,0.739-0.533c0.122-0.088,0.21-0.086,0.334-0.001
			c0.239,0.163,0.494,0.305,0.794,0.485c-0.035-0.361-0.216-0.61-0.281-0.894c-0.021-0.091-0.052-0.147,0.033-0.209
			C52.084,64.271,52.363,64.068,52.705,63.822z M54.055,55.775c-0.118,0.364-0.214,0.653-0.305,0.945
			c-0.045,0.146-0.118,0.212-0.284,0.205c-0.316-0.016-0.634-0.006-1.013-0.006c0.342,0.248,0.622,0.451,0.902,0.654
			c0.087,0.061,0.042,0.123,0.033,0.208c-0.03,0.307-0.221,0.583-0.194,0.948c0.252-0.189,0.472-0.339,0.673-0.51
			c0.133-0.113,0.233-0.133,0.381-0.019c0.231,0.181,0.48,0.337,0.76,0.53c-0.013-0.368-0.185-0.643-0.26-0.94
			c-0.027-0.108-0.047-0.168,0.047-0.233c0.277-0.199,0.554-0.399,0.884-0.639c-0.326,0-0.588-0.024-0.843,0.008
			c-0.282,0.033-0.387-0.11-0.452-0.338C54.31,56.329,54.211,56.079,54.055,55.775z M41.373,64.265
			c-0.322,0-0.576-0.024-0.822,0.007c-0.289,0.036-0.403-0.104-0.478-0.345c-0.078-0.257-0.158-0.515-0.327-0.79
			c-0.112,0.335-0.22,0.616-0.299,0.906c-0.046,0.168-0.121,0.233-0.299,0.226c-0.314-0.015-0.629-0.004-0.994-0.004
			c0.271,0.201,0.471,0.387,0.703,0.513c0.269,0.146,0.251,0.316,0.181,0.569c-0.061,0.219-0.211,0.436-0.135,0.718
			c0.241-0.182,0.46-0.334,0.662-0.506c0.136-0.115,0.238-0.119,0.381-0.007c0.229,0.181,0.479,0.335,0.765,0.531
			c-0.033-0.377-0.199-0.654-0.272-0.956c-0.021-0.089-0.056-0.146,0.031-0.209C40.75,64.716,41.03,64.513,41.373,64.265z
			 M67.979,71.469c0.028-0.151-0.022-0.308-0.088-0.428c-0.151-0.277,0.002-0.43,0.194-0.552c0.135-0.085,0.228-0.193,0.386-0.337
			c-0.251,0-0.438-0.011-0.622,0.003c-0.186,0.015-0.283-0.035-0.325-0.236c-0.038-0.187-0.139-0.359-0.228-0.574
			c-0.09,0.223-0.188,0.387-0.218,0.561c-0.04,0.248-0.187,0.26-0.38,0.25c-0.191-0.011-0.384-0.003-0.576-0.003
			c0.227,0.133,0.322,0.379,0.543,0.484c0.095,0.047,0.16,0.132,0.097,0.284c-0.081,0.19-0.105,0.405-0.153,0.605
			c0.096,0.038,0.13-0.026,0.174-0.067c0.476-0.432,0.476-0.432,1.001-0.088C67.842,71.409,67.871,71.498,67.979,71.469z
			 M71.944,67.327c-0.058-0.217-0.082-0.4-0.156-0.56c-0.081-0.176-0.017-0.256,0.117-0.352c0.176-0.126,0.338-0.271,0.56-0.452
			c-0.349,0-0.646,0.068-0.887-0.02c-0.246-0.091-0.16-0.477-0.354-0.682c-0.119,0.13-0.15,0.282-0.187,0.424
			c-0.052,0.216-0.158,0.315-0.392,0.291c-0.199-0.02-0.4-0.004-0.602-0.004c0.422,0.318,0.815,0.597,0.55,1.196
			c-0.023,0.052-0.118,0.11-0.005,0.215c0.183-0.165,0.359-0.401,0.595-0.443C71.452,66.895,71.623,67.201,71.944,67.327z
			 M60.924,68.991c0.015,0.023,0.028,0.047,0.041,0.069c0.434-0.497,0.893-0.517,1.354-0.07c0.019-0.057,0.446-1.298,0.462-1.344
			c-0.596,0.191-0.938-0.027-1.041-0.618c-0.001-0.01-0.008-0.019-0.011-0.027c-0.043-0.109-0.085-0.108-0.13-0.002
			c-0.039,0.094-0.103,0.185-0.115,0.281c-0.044,0.33-0.222,0.451-0.546,0.407c-0.146-0.021-0.298-0.005-0.474-0.005
			c0.111,0.1,0.183,0.171,0.263,0.23c0.431,0.315,0.433,0.315,0.296,0.805C60.997,68.811,60.958,68.899,60.924,68.991z
			 M56.884,69.212c0.441-0.533,0.887-0.536,1.346-0.034c-0.039-0.222-0.072-0.402-0.158-0.554c-0.102-0.177-0.057-0.269,0.098-0.374
			c0.179-0.12,0.336-0.271,0.54-0.44c-0.154,0-0.249,0-0.343,0c-0.604,0-0.604,0-0.752-0.571c-0.017-0.063,0.03-0.147-0.086-0.198
			c-0.059,0.163-0.13,0.316-0.169,0.478c-0.061,0.245-0.199,0.329-0.446,0.297c-0.179-0.023-0.36-0.005-0.598-0.005
			c0.262,0.215,0.521,0.347,0.658,0.559C57.124,68.602,56.813,68.858,56.884,69.212z M60.683,71.546
			c-0.185,0-0.37-0.015-0.553,0.003c-0.246,0.021-0.382-0.054-0.439-0.313c-0.029-0.13-0.034-0.306-0.203-0.397
			c-0.057,0.145-0.09,0.278-0.116,0.418c-0.037,0.198-0.132,0.324-0.381,0.297c-0.215-0.022-0.442-0.039-0.676,0.023
			c0.119,0.097,0.203,0.204,0.312,0.248c0.4,0.16,0.476,0.432,0.313,0.803c-0.033,0.074-0.114,0.17-0.036,0.224
			c0.105,0.072,0.141-0.087,0.219-0.122c0.199-0.089,0.343-0.398,0.636-0.117c0.109,0.104,0.3,0.311,0.416,0.221
			c0.105-0.081-0.053-0.311-0.09-0.476c-0.025-0.11-0.127-0.241,0.045-0.317C60.353,71.938,60.459,71.693,60.683,71.546z
			 M66.685,74.752c0.033-0.014,0.07-0.024,0.103-0.041c0.036-0.019,0.071-0.041,0.103-0.067c0.456-0.361,0.455-0.358,0.93-0.06
			c0.067,0.041,0.102,0.143,0.215,0.116c0.007-0.024,0.031-0.062,0.021-0.08c-0.283-0.504-0.073-0.831,0.378-1.08
			c0.03-0.018,0.109-0.007,0.092-0.097c-0.252,0-0.522,0.06-0.75-0.015c-0.262-0.086-0.208-0.432-0.337-0.641
			c-0.021-0.032-0.034-0.086-0.063-0.094c-0.073-0.021-0.071,0.053-0.091,0.096c-0.037,0.083-0.093,0.165-0.104,0.253
			c-0.042,0.332-0.224,0.449-0.545,0.405c-0.146-0.02-0.298-0.004-0.505-0.004c0.747,0.52,0.747,0.52,0.59,1.163
			C66.71,74.654,66.645,74.685,66.685,74.752z M67.133,69.045c-0.419-0.592-0.189-0.946,0.312-1.22
			c0.025-0.013,0.092,0.001,0.063-0.082c-0.257,0-0.556,0.079-0.771-0.021c-0.239-0.11-0.176-0.469-0.279-0.706
			c-0.007-0.013-0.034-0.016-0.067-0.03c-0.098,0.142-0.127,0.311-0.18,0.473c-0.063,0.194-0.169,0.331-0.421,0.295
			c-0.2-0.029-0.406-0.007-0.669-0.007c0.256,0.174,0.451,0.318,0.658,0.439c0.116,0.068,0.117,0.115,0.079,0.241
			c-0.056,0.186-0.154,0.371-0.114,0.651C66.191,68.613,66.638,68.646,67.133,69.045z M74.551,64.389
			c-0.334,0-0.631,0.078-0.847-0.021c-0.242-0.112-0.179-0.469-0.281-0.707c-0.005-0.014-0.033-0.017-0.071-0.035
			c-0.086,0.147-0.125,0.311-0.176,0.474c-0.061,0.195-0.167,0.335-0.42,0.298c-0.199-0.029-0.407-0.006-0.671-0.006
			c0.257,0.173,0.45,0.317,0.658,0.438c0.114,0.067,0.119,0.112,0.079,0.239c-0.057,0.186-0.152,0.372-0.122,0.605
			c0.249-0.119,0.419-0.378,0.669-0.382c0.259-0.004,0.431,0.271,0.723,0.386c-0.081-0.233-0.129-0.429-0.218-0.605
			c-0.053-0.106-0.056-0.166,0.039-0.232C74.104,64.707,74.294,64.57,74.551,64.389z M76.001,62.072
			c0.447-0.579,0.894-0.517,1.388-0.048c-0.416-0.596-0.192-0.952,0.311-1.226c0.026-0.015,0.094,0,0.064-0.083
			c-0.257,0-0.556,0.079-0.771-0.021c-0.239-0.111-0.175-0.471-0.281-0.709c-0.005-0.012-0.033-0.014-0.073-0.029
			c-0.051,0.117-0.126,0.232-0.146,0.355c-0.051,0.324-0.216,0.459-0.546,0.411c-0.146-0.021-0.3-0.004-0.486-0.004
			c0.209,0.166,0.361,0.325,0.546,0.424c0.149,0.081,0.147,0.142,0.101,0.284C76.049,61.602,75.965,61.78,76.001,62.072z
			 M58.711,50.657c0.294,0.229,0.669,0.34,0.433,0.783c-0.064,0.122,0.074,0.103,0.146,0.042c0.191-0.165,0.38-0.163,0.571,0
			c0.037,0.031,0.081,0.084,0.132,0.037c0.041-0.036,0.04-0.102,0.009-0.144c-0.183-0.251-0.046-0.387,0.158-0.529
			c0.067-0.047,0.221-0.039,0.201-0.198c-0.182,0-0.367,0.029-0.537-0.007c-0.206-0.046-0.098-0.33-0.309-0.47
			C59.555,50.799,59.121,50.637,58.711,50.657z M67.952,67.378c0.418,0.312,0.418,0.312,0.241,0.944
			c0.342-0.319,0.666-0.281,0.992-0.034c-0.065-0.238-0.184-0.431-0.141-0.577c0.047-0.161,0.325-0.163,0.451-0.355
			c-0.205,0-0.416,0.054-0.571-0.016c-0.16-0.07-0.109-0.341-0.288-0.556C68.646,67.32,68.381,67.455,67.952,67.378z M50.878,73.488
			c-0.07,0.395-0.266,0.566-0.661,0.463c0.278,0.19,0.513,0.375,0.293,0.766c0.273-0.311,0.516-0.149,0.804-0.001
			c-0.352-0.396,0.061-0.53,0.272-0.81C51.122,74.055,50.97,73.836,50.878,73.488z"/>
		<path fill-rule="evenodd" clip-rule="evenodd" fill="#000083" d="M24.311,40.829c0.255-0.831,0.668-1.594,1.005-2.39
			c0.55-1.298,1.306-2.477,2.093-3.632c0.748-1.098,1.489-2.205,2.437-3.155c0.44-0.441,0.808-0.958,1.271-1.38
			c1.147-1.043,2.307-2.066,3.601-2.938c1.282-0.865,2.56-1.727,3.951-2.411c1.218-0.6,2.474-1.107,3.755-1.55
			c1.304-0.451,2.65-0.763,4.005-1.004c0.84-0.149,1.694-0.253,2.546-0.342c1.276-0.134,2.556-0.155,3.831-0.105
			c1.114,0.043,2.223,0.186,3.33,0.351c1.585,0.236,3.138,0.589,4.649,1.101c1.137,0.385,2.241,0.857,3.337,1.363
			c1.372,0.634,2.65,1.413,3.901,2.239c0.832,0.55,1.637,1.144,2.383,1.81c0.654,0.582,1.34,1.135,1.943,1.767
			c1.122,1.175,2.203,2.389,3.133,3.732c0.781,1.128,1.545,2.265,2.152,3.497c0.7,1.418,1.322,2.869,1.815,4.371
			c0.391,1.194,0.695,2.413,0.894,3.656c0.195,1.225,0.428,2.44,0.453,3.689c0.013,0.664,0.152,1.331,0.104,1.995
			c-0.043,0.581-0.068,1.164-0.117,1.744c-0.222-0.184-0.437-0.379-0.668-0.55c-1.29-0.96-2.626-1.854-3.975-2.729
			c-1.245-0.81-2.551-1.511-3.856-2.208c-1.296-0.692-2.618-1.333-3.966-1.925c-1.363-0.6-2.745-1.145-4.13-1.687
			c-1.308-0.513-2.66-0.902-3.994-1.34c-0.815-0.268-1.642-0.479-2.485-0.652c-0.603-0.124-1.194-0.344-1.8-0.476
			c-0.829-0.181-1.656-0.375-2.489-0.54c-0.723-0.143-1.438-0.312-2.166-0.434c-0.297-0.05-0.596-0.006-0.892-0.101
			c-0.328-0.106-0.68-0.158-1.026-0.195c-0.575-0.062-1.156-0.128-1.719-0.225c-0.702-0.122-1.412-0.194-2.113-0.264
			c-0.846-0.083-1.696-0.188-2.548-0.206c-1.131-0.024-2.259-0.104-3.39-0.126c-0.68-0.013-1.361-0.038-2.044,0.047
			c-0.591,0.073-1.196,0.05-1.789,0.05c-1.256,0-2.492,0.174-3.737,0.269c-0.92,0.07-1.838,0.128-2.757,0.238
			c-0.819,0.098-1.628,0.305-2.465,0.289c-0.18-0.003-0.385,0.041-0.578,0.082C25.575,40.686,24.956,40.85,24.311,40.829z
			 M58.872,40.459c0.293,0.228,0.544,0.444,0.817,0.624c0.124,0.082,0.11,0.125,0.089,0.259c-0.049,0.301-0.239,0.567-0.219,0.958
			c0.176-0.25,0.41-0.324,0.587-0.48c0.188-0.167,0.382-0.21,0.598-0.028c0.139,0.118,0.299,0.217,0.462,0.303
			c0.048,0.025,0.111,0.127,0.185,0.046c0.044-0.049,0.01-0.111-0.015-0.173c-0.081-0.208-0.132-0.429-0.226-0.63
			c-0.065-0.139-0.037-0.176,0.087-0.257c0.272-0.179,0.52-0.395,0.811-0.622c-0.283,0-0.517-0.021-0.745,0.005
			c-0.313,0.037-0.456-0.082-0.537-0.386c-0.063-0.241-0.141-0.496-0.321-0.728c-0.108,0.313-0.225,0.584-0.291,0.868
			c-0.05,0.212-0.156,0.252-0.346,0.244C59.513,40.45,59.218,40.459,58.872,40.459z"/>
		<path fill-rule="evenodd" clip-rule="evenodd" fill="#FEFEFE" d="M24.311,40.829c0.645,0.021,1.265-0.143,1.887-0.273
			c0.193-0.041,0.398-0.084,0.578-0.082c0.837,0.016,1.646-0.191,2.465-0.289c0.918-0.11,1.837-0.168,2.757-0.238
			c1.246-0.095,2.481-0.269,3.737-0.269c0.593,0,1.198,0.023,1.789-0.05c0.683-0.085,1.364-0.061,2.044-0.047
			c1.13,0.022,2.258,0.103,3.39,0.126c0.852,0.019,1.702,0.123,2.548,0.206c0.702,0.069,1.411,0.142,2.113,0.264
			c0.563,0.097,1.144,0.163,1.719,0.225c0.347,0.037,0.698,0.089,1.026,0.195c0.296,0.095,0.595,0.051,0.892,0.101
			c0.728,0.122,1.443,0.291,2.166,0.434c0.833,0.166,1.66,0.359,2.489,0.54c0.605,0.132,1.197,0.352,1.8,0.476
			c0.844,0.173,1.67,0.384,2.485,0.652c1.334,0.438,2.687,0.827,3.994,1.34c1.385,0.542,2.767,1.087,4.13,1.687
			c1.348,0.593,2.67,1.233,3.966,1.925c1.306,0.697,2.611,1.398,3.856,2.208c1.349,0.876,2.685,1.77,3.975,2.729
			c0.231,0.171,0.446,0.366,0.668,0.55c0.384,0.207,0.145,0.542,0.11,0.785c-0.146,1.029-0.299,2.061-0.559,3.068
			c-0.15,0.581-0.161,1.182-0.292,1.768c-0.068,0.305-0.148,0.163-0.272,0.098c-1.124-0.952-2.288-1.849-3.505-2.681
			c-1.536-1.053-3.11-2.042-4.727-2.968c-1.493-0.855-3.042-1.6-4.594-2.336c-1.168-0.554-2.382-0.998-3.604-1.424
			c-0.621-0.217-1.204-0.551-1.84-0.743c-1.217-0.368-2.419-0.785-3.641-1.14c-0.94-0.273-1.887-0.515-2.831-0.767
			c-0.57-0.153-1.146-0.288-1.714-0.447c-0.286-0.08-0.583-0.121-0.876-0.167c-0.992-0.152-1.978-0.331-2.96-0.542
			c-0.541-0.116-1.101-0.17-1.655-0.233c-0.674-0.077-1.353-0.141-2.021-0.261c-0.48-0.086-0.965-0.119-1.447-0.16
			c-0.901-0.078-1.8-0.182-2.706-0.216c-0.32-0.012-0.645-0.027-0.968-0.047c-2.024-0.123-4.051-0.17-6.078-0.117
			c-1.079,0.028-2.155,0.163-3.232,0.24c-0.343,0.025-0.688,0.038-1.03,0.054c-0.709,0.033-1.42,0.063-2.12,0.159
			c-0.464,0.063-0.939,0.074-1.399,0.206c-0.293,0.084-0.614,0.1-0.914,0.127c-0.69,0.063-1.362,0.232-2.052,0.288
			c-0.341,0.027-0.676,0.12-1.015,0.184c-0.17,0.016-0.234,0.013-0.192-0.224c0.253-1.41,0.611-2.789,1.085-4.139
			c0.051-0.146,0.119-0.287,0.151-0.437C23.937,40.93,24.143,40.909,24.311,40.829z M39.475,43.32
			c-0.176-0.759-0.471-1.441-0.618-2.159c-0.078-0.378-0.271-0.422-0.581-0.389c-0.116,0.012-0.161,0.032-0.166,0.159
			c-0.037,0.897-0.08,1.793-0.125,2.69c-0.008,0.162-0.007,0.268,0.22,0.267c0.22-0.001,0.234-0.093,0.226-0.262
			c-0.04-0.749,0.114-1.49,0.079-2.241c0.22,0.766,0.424,1.531,0.61,2.3c0.035,0.144,0.088,0.184,0.225,0.197
			c0.246,0.024,0.421-0.027,0.477-0.301c0.029-0.139,0.083-0.272,0.13-0.407c0.198-0.559,0.397-1.118,0.595-1.677
			c0.034,0.368,0.082,0.735,0.021,1.083c-0.07,0.4-0.019,0.794-0.051,1.189c-0.012,0.142,0.044,0.187,0.18,0.174
			c0.103-0.009,0.2,0.023,0.206-0.149c0.033-0.897,0.083-1.793,0.118-2.691c0.004-0.089,0.093-0.273-0.111-0.257
			c-0.196,0.014-0.459-0.139-0.571,0.153c-0.142,0.37-0.255,0.751-0.393,1.123C39.794,42.524,39.631,42.921,39.475,43.32z
			 M55.98,44.892c0.175,0,0.288,0.01,0.398-0.002c0.338-0.038,0.548-0.2,0.66-0.633c0.066-0.262-0.129-0.816-0.325-0.877
			c-0.516-0.159-1.033-0.321-1.573-0.389c-0.19-0.023-0.275,0.048-0.317,0.236c-0.183,0.828-0.38,1.652-0.565,2.479
			c-0.018,0.083-0.191,0.212,0.034,0.259c0.162,0.034,0.304,0.007,0.345-0.2c0.058-0.291,0.13-0.578,0.191-0.868
			c0.038-0.183,0.163-0.24,0.319-0.189c0.331,0.109,0.655,0.232,0.759,0.63c0.069,0.265,0.178,0.519,0.254,0.783
			c0.081,0.284,0.215,0.459,0.559,0.32C56.47,45.957,56.454,45.365,55.98,44.892z M31.278,42.538
			c-0.075,0.463,0.103,0.916,0.059,1.377c-0.012,0.129,0.046,0.176,0.164,0.153c0.46-0.092,0.934-0.044,1.391-0.134
			c0.358-0.069,0.631-0.284,0.769-0.642c0.185-0.479,0.214-0.979,0.063-1.457c-0.132-0.419-0.356-0.783-0.871-0.88
			c-0.524-0.099-1.033,0.084-1.55,0.018c-0.134-0.017-0.084,0.116-0.09,0.189C31.169,41.623,31.336,42.075,31.278,42.538z
			 M30.502,44.238c-0.242-0.408-0.5-0.803-0.863-1.116c-0.168-0.145-0.262-0.24,0.042-0.326c0.227-0.064,0.46-0.454,0.453-0.701
			c-0.009-0.348-0.217-0.662-0.506-0.751c-0.431-0.133-0.873-0.047-1.31-0.057c-0.647-0.014-0.632-0.001-0.594,0.641
			c0.046,0.777,0.115,1.552,0.186,2.327c0.017,0.183,0.083,0.19,0.226,0.198c0.192,0.01,0.195-0.123,0.156-0.221
			c-0.121-0.3,0.005-0.622-0.109-0.924c-0.031-0.083-0.078-0.292,0.051-0.299c0.263-0.016,0.545-0.102,0.796,0.051
			c0.352,0.215,0.58,0.563,0.802,0.887C30.012,44.208,30.184,44.32,30.502,44.238z M66.455,48.374c0.172,0,0.298,0,0.424,0
			c0.359,0,0.627-0.271,0.728-0.734c0.046-0.207-0.18-0.693-0.396-0.763c-0.39-0.126-0.72-0.375-1.124-0.479
			c-0.468-0.121-0.449-0.147-0.627,0.297c-0.289,0.727-0.58,1.455-0.912,2.163c-0.115,0.245-0.043,0.264,0.157,0.313
			c0.2,0.049,0.199-0.116,0.239-0.205c0.11-0.25,0.188-0.515,0.291-0.768c0.04-0.098,0.073-0.226,0.235-0.203
			c0.403,0.059,0.751,0.44,0.819,0.875c0.049,0.323,0.141,0.639,0.181,0.962c0.028,0.227,0.232,0.066,0.313,0.178
			c0.027,0.037,0.083-0.046,0.07-0.098C66.735,49.412,66.752,48.878,66.455,48.374z M62.834,47.285
			c0.2-0.003,0.37,0.127,0.563,0.187c0.109,0.034,0.309,0.041,0.271,0.166c-0.046,0.15-0.039,0.355-0.286,0.431
			c-0.451,0.14-0.821-0.023-1.197-0.22c-0.169-0.089-0.375-0.155-0.39-0.389c-0.017-0.273-0.087-0.541-0.01-0.823
			c0.12-0.433,0.535-0.944,1.09-0.927c0.372,0.012,0.668,0.177,0.948,0.389c0.155,0.116,0.117,0.293,0.12,0.455
			c0.004,0.163,0.115,0.169,0.24,0.177c0.151,0.009,0.132-0.083,0.142-0.181c0.053-0.474-0.221-0.731-0.589-0.952
			c-0.483-0.292-0.993-0.339-1.495-0.126c-0.627,0.265-1.061,1.275-0.877,1.93c0.033,0.115,0.072,0.241,0.146,0.33
			c0.475,0.56,1.069,0.841,1.817,0.772c0.259-0.023,0.452-0.111,0.552-0.368c0.081-0.208,0.155-0.423,0.27-0.614
			c0.084-0.14,0.001-0.158-0.082-0.194c-0.225-0.097-0.464-0.168-0.673-0.29C63.078,46.853,62.896,46.913,62.834,47.285z
			 M77.97,56.098c0.963,0.065,1.551-0.902,1.609-1.688c0.055-0.745-0.989-1.42-1.53-1.415c-0.755,0.006-1.57,0.874-1.57,1.677
			C76.479,55.485,77.118,56.098,77.97,56.098z M67.623,50.482c0.645,0.246,1.291,0.484,1.932,0.742
			c0.162,0.066,0.228,0.049,0.302-0.111c0.1-0.212-0.098-0.174-0.167-0.203c-0.497-0.217-1.002-0.418-1.496-0.621
			c0.092-0.239,0.173-0.47,0.267-0.694c0.063-0.151,0.123-0.264,0.346-0.156c0.374,0.18,0.778,0.296,1.159,0.462
			c0.142,0.061,0.177,0.037,0.258-0.088c0.104-0.161-0.013-0.178-0.094-0.215c-0.306-0.139-0.615-0.269-0.924-0.402
			c-0.168-0.073-0.375-0.111-0.485-0.235c-0.049-0.055,0.099-0.284,0.155-0.435c0.01-0.028,0-0.064,0.01-0.093
			c0.076-0.226,0.19-0.305,0.442-0.193c0.398,0.177,0.824,0.294,1.225,0.466c0.169,0.073,0.179-0.018,0.247-0.115
			c0.125-0.177-0.06-0.178-0.117-0.204c-0.514-0.223-1.038-0.419-1.548-0.65c-0.292-0.132-0.377,0.024-0.468,0.246
			C68.321,48.82,67.971,49.654,67.623,50.482z M25.328,44.701c0.952,0.041,1.444-0.639,1.443-1.475
			c-0.001-1.007-0.514-1.604-1.395-1.626c-0.961-0.025-1.518,0.573-1.516,1.479C23.863,44.138,24.507,44.783,25.328,44.701z
			 M59.268,44.068c-0.994-0.099-1.482,0.951-1.518,1.708c-0.034,0.752,0.692,1.409,1.537,1.393c0.864-0.017,1.452-0.771,1.485-1.678
			C60.802,44.75,60.06,43.979,59.268,44.068z M35.743,40.839c-0.264,0-0.53,0.026-0.79-0.006c-0.305-0.039-0.356,0.097-0.324,0.351
			c0.08,0.63,0.113,1.265,0.121,1.899c0.003,0.252,0.104,0.489,0.073,0.744c-0.021,0.163,0.117,0.109,0.199,0.114
			c0.356,0.021,0.702-0.093,1.061-0.066c0.283,0.021,0.569,0,0.854,0.006c0.178,0.004,0.185-0.06,0.126-0.209
			c-0.056-0.143-0.159-0.107-0.256-0.108c-0.464-0.002-0.927,0.002-1.392-0.003c-0.078-0.001-0.226,0.062-0.211-0.099
			c0.024-0.245-0.081-0.47-0.073-0.712c0.004-0.139,0.028-0.185,0.186-0.207c0.438-0.063,0.875-0.053,1.314-0.054
			c0.118,0,0.224,0.021,0.22-0.167c-0.004-0.202-0.135-0.147-0.237-0.148c-0.421-0.003-0.843,0.002-1.265-0.005
			c-0.077-0.001-0.226,0.063-0.208-0.1c0.022-0.205-0.069-0.387-0.075-0.586c-0.005-0.197,0.036-0.275,0.254-0.266
			c0.442,0.019,0.886,0,1.328,0.008c0.142,0.002,0.206-0.026,0.202-0.188c-0.003-0.146-0.031-0.206-0.191-0.199
			C36.355,40.849,36.049,40.839,35.743,40.839z M73.761,52.947c-0.066,0.334,0.104,0.563,0.316,0.782
			c0.14,0.144,0.314,0.231,0.475,0.342c0.332,0.23,0.95,0.151,1.223-0.15c0.216-0.24,0.164-0.716-0.078-1.051
			c-0.202-0.278-0.468-0.5-0.645-0.804c-0.146-0.25-0.098-0.525,0.176-0.588c0.35-0.077,0.599,0.105,0.812,0.352
			c0.162,0.187,0.309,0.381,0.163,0.648c-0.106,0.197,0.106,0.14,0.169,0.201c0.089,0.087,0.163,0.08,0.192-0.054
			c0.035-0.157,0.12-0.327,0.09-0.474c-0.122-0.57-0.896-1.146-1.396-1.059c-0.27,0.047-0.491,0.159-0.6,0.416
			c-0.093,0.221-0.133,0.43,0.009,0.684c0.2,0.361,0.479,0.639,0.75,0.933c0.202,0.22,0.134,0.549-0.138,0.656
			c-0.363,0.146-0.659-0.028-0.891-0.266c-0.197-0.203-0.346-0.472-0.209-0.782c0.058-0.13,0.076-0.205-0.09-0.271
			c-0.164-0.067-0.211-0.009-0.286,0.122C73.732,52.71,73.779,52.831,73.761,52.947z M73.63,50.487
			c0.015-0.144-0.021-0.291-0.124-0.438c-0.257-0.368-0.612-0.539-1.043-0.614c-0.3-0.052-0.644,0.031-0.793,0.315
			c-0.125,0.236-0.121,0.512,0.016,0.768c0.198,0.368,0.558,0.582,0.826,0.884c0.202,0.226,0.17,0.422-0.033,0.635
			c-0.26,0.271-0.518,0.122-0.729-0.002c-0.376-0.22-0.68-0.532-0.46-0.942c0.043-0.078,0.029-0.1-0.049-0.146
			c-0.279-0.164-0.357-0.143-0.389,0.176c-0.016,0.162-0.013,0.325,0.028,0.495c0.109,0.459,0.931,1.029,1.399,0.931
			c0.578-0.121,0.965-0.527,0.707-1.133c-0.095-0.221-0.275-0.408-0.471-0.569c-0.177-0.145-0.386-0.258-0.481-0.487
			c-0.108-0.26-0.027-0.547,0.181-0.591c0.474-0.099,1.037,0.326,1.027,0.804c-0.004,0.223,0.141,0.252,0.275,0.302
			c0.081,0.028,0.109-0.04,0.112-0.263C73.631,50.578,73.63,50.546,73.63,50.487z M52.899,44.258c0.535,0,0.706-0.129,0.931-0.68
			c0.119-0.291,0.041-0.674-0.274-0.885c-0.499-0.334-1.099-0.382-1.68-0.456c-0.124-0.015-0.13,0.125-0.146,0.203
			c-0.176,0.85-0.346,1.702-0.508,2.556c-0.017,0.085-0.22,0.233,0.05,0.275c0.198,0.031,0.322-0.035,0.326-0.254
			c0.004-0.239,0.128-0.453,0.135-0.694c0.004-0.128,0.095-0.195,0.255-0.199C52.313,44.116,52.605,44.319,52.899,44.258z
			 M46.705,44.417c0.081-0.323-0.059-0.433-0.353-0.414c-0.134,0.009-0.286-0.062-0.393-0.044c-0.454,0.072-0.434-0.164-0.382-0.479
			c0.024-0.148,0.031-0.187,0.204-0.142c0.258,0.066,0.532,0.067,0.799,0.099c0.145,0.018,0.155-0.071,0.142-0.175
			c-0.011-0.08,0.052-0.222-0.11-0.202c-0.235,0.029-0.45-0.085-0.681-0.067c-0.162,0.012-0.309-0.003-0.282-0.224
			c0.022-0.19,0.105-0.36,0.326-0.275c0.23,0.088,0.476,0.007,0.702,0.109c0.06,0.027,0.232,0.086,0.232-0.099
			c0-0.115,0.076-0.259-0.168-0.281c-0.389-0.037-0.79-0.049-1.166-0.139c-0.299-0.072-0.288,0.066-0.309,0.249
			c-0.074,0.638-0.146,1.276-0.218,1.902C45.608,44.296,46.151,44.356,46.705,44.417z"/>
		<path fill-rule="evenodd" clip-rule="evenodd" fill="#FEFEFE" d="M26.593,46.007c0.126,0.367,0.215,0.646,0.319,0.92
			c0.033,0.085,0.056,0.189,0.206,0.185c0.342-0.01,0.687-0.034,1.02,0.088c-0.232,0.184-0.463,0.404-0.729,0.563
			c-0.178,0.106-0.183,0.194-0.124,0.36c0.086,0.244,0.24,0.469,0.251,0.793c-0.285-0.172-0.54-0.313-0.779-0.477
			c-0.125-0.084-0.212-0.085-0.334,0.002c-0.245,0.174-0.502,0.331-0.767,0.502c-0.023-0.127,0.042-0.205,0.057-0.294
			c0.042-0.256,0.245-0.541,0.139-0.754c-0.105-0.21-0.408-0.321-0.621-0.479c-0.088-0.066-0.168-0.143-0.25-0.213
			c0.31-0.118,0.638-0.106,0.961-0.089c0.16,0.008,0.218-0.066,0.268-0.189C26.323,46.644,26.442,46.367,26.593,46.007z"/>
		<path fill-rule="evenodd" clip-rule="evenodd" fill="#FEFEFE" d="M48.421,59.928c-0.272-0.162-0.525-0.293-0.754-0.458
			c-0.15-0.108-0.244-0.092-0.384,0.013c-0.228,0.171-0.478,0.313-0.745,0.483c0.072-0.31,0.118-0.598,0.21-0.87
			c0.046-0.138,0.034-0.197-0.081-0.277c-0.274-0.191-0.539-0.398-0.813-0.604c0.294-0.073,0.58-0.132,0.863-0.084
			c0.272,0.046,0.366-0.107,0.446-0.309c0.096-0.24,0.19-0.479,0.31-0.779c0.105,0.26,0.224,0.445,0.253,0.646
			c0.057,0.38,0.254,0.5,0.609,0.438c0.239-0.042,0.464,0.063,0.739,0.075c-0.306,0.222-0.583,0.423-0.862,0.623
			c-0.09,0.064-0.074,0.123-0.051,0.232C48.224,59.34,48.432,59.581,48.421,59.928z"/>
		<path fill-rule="evenodd" clip-rule="evenodd" fill="#FEFEFE" d="M49.352,53.789c0.32-0.123,0.646-0.103,0.967-0.094
			c0.148,0.004,0.162-0.105,0.199-0.19c0.123-0.274,0.237-0.554,0.383-0.9c0.14,0.33,0.264,0.593,0.363,0.863
			c0.063,0.168,0.146,0.248,0.336,0.228c0.287-0.03,0.572,0.008,0.869,0.084c-0.276,0.208-0.539,0.416-0.813,0.605
			c-0.108,0.074-0.124,0.117-0.068,0.244c0.113,0.258,0.187,0.531,0.293,0.848c-0.337-0.099-0.552-0.306-0.8-0.446
			c-0.141-0.08-0.229-0.092-0.36,0.007c-0.21,0.156-0.438,0.29-0.68,0.447c-0.072-0.327,0.149-0.565,0.179-0.845
			c0.014-0.129,0.038-0.177-0.089-0.26C49.857,54.201,49.609,53.987,49.352,53.789z"/>
		<path fill-rule="evenodd" clip-rule="evenodd" fill="#FEFEFE" d="M70.711,60.846c0.367,0,0.684-0.011,0.998,0.005
			c0.156,0.008,0.228-0.056,0.271-0.184c0.097-0.278,0.19-0.555,0.314-0.915c0.126,0.299,0.233,0.531,0.321,0.771
			c0.08,0.221,0.176,0.367,0.459,0.331c0.274-0.035,0.557-0.008,0.901-0.008c-0.334,0.241-0.612,0.439-0.888,0.643
			c-0.069,0.051-0.102,0.095-0.052,0.205c0.105,0.24,0.17,0.5,0.257,0.749c0.02,0.054,0.034,0.107,0.001,0.146
			c-0.062,0.073-0.108-0.01-0.156-0.034c-0.063-0.032-0.117-0.082-0.179-0.119c-0.69-0.414-0.75-0.407-1.358,0.153
			c-0.044,0.041-0.076,0.107-0.174,0.078c0.063-0.3,0.108-0.608,0.197-0.903c0.046-0.148,0.037-0.205-0.097-0.294
			C71.255,61.288,71.005,61.073,70.711,60.846z"/>
		<path fill-rule="evenodd" clip-rule="evenodd" fill="#FEFEFE" d="M41.222,52.917c-0.304-0.188-0.558-0.336-0.804-0.499
			c-0.112-0.074-0.199-0.076-0.309,0.004c-0.223,0.158-0.454,0.305-0.705,0.47c-0.072-0.33,0.137-0.571,0.182-0.847
			c0.023-0.143,0.009-0.211-0.083-0.283c-0.265-0.207-0.533-0.41-0.866-0.666c0.349,0,0.629-0.027,0.9,0.009
			c0.254,0.032,0.325-0.119,0.397-0.29c0.103-0.242,0.195-0.489,0.325-0.817c0.127,0.305,0.233,0.538,0.322,0.778
			c0.081,0.221,0.181,0.365,0.462,0.328c0.253-0.035,0.515-0.008,0.849-0.008c-0.319,0.244-0.577,0.439-0.833,0.638
			c-0.108,0.084-0.172,0.156-0.11,0.331C41.04,52.318,41.191,52.558,41.222,52.917z"/>
		<path fill-rule="evenodd" clip-rule="evenodd" fill="#FEFEFE" d="M31.101,59.911c-0.25-0.155-0.504-0.303-0.749-0.465
			c-0.113-0.075-0.2-0.079-0.309,0.003c-0.236,0.179-0.506,0.308-0.792,0.589c0.1-0.385,0.165-0.679,0.255-0.966
			c0.052-0.167,0.048-0.256-0.129-0.36c-0.261-0.153-0.485-0.367-0.768-0.588c0.336,0,0.635-0.013,0.931,0.004
			c0.153,0.009,0.226-0.055,0.276-0.179c0.115-0.28,0.231-0.561,0.377-0.915c0.123,0.334,0.237,0.597,0.316,0.87
			c0.049,0.17,0.126,0.23,0.301,0.223c0.311-0.014,0.623-0.003,0.989-0.003c-0.313,0.234-0.574,0.441-0.848,0.63
			c-0.107,0.073-0.12,0.116-0.069,0.243c0.113,0.28,0.187,0.575,0.275,0.862C31.14,59.877,31.12,59.894,31.101,59.911z"/>
		<path fill-rule="evenodd" clip-rule="evenodd" fill="#FEFEFE" d="M52.705,63.822c-0.342,0.246-0.621,0.449-0.901,0.651
			c-0.085,0.062-0.055,0.118-0.033,0.209c0.065,0.283,0.246,0.532,0.281,0.894c-0.3-0.181-0.555-0.322-0.794-0.485
			c-0.124-0.085-0.212-0.087-0.334,0.001c-0.238,0.173-0.5,0.313-0.739,0.533c-0.006-0.354,0.171-0.626,0.228-0.93
			c0.027-0.146,0.013-0.177-0.102-0.254c-0.269-0.179-0.515-0.39-0.811-0.619c0.323,0,0.604-0.016,0.881,0.004
			c0.202,0.016,0.299-0.065,0.355-0.246c0.07-0.222,0.149-0.441,0.233-0.659c0.023-0.063,0.066-0.151,0.116-0.163
			c0.092-0.021,0.074,0.102,0.119,0.152c0.037,0.042,0.048,0.112,0.058,0.172c0.098,0.669,0.504,0.864,1.124,0.742
			C52.467,63.808,52.552,63.822,52.705,63.822z"/>
		<path fill-rule="evenodd" clip-rule="evenodd" fill="#FEFEFE" d="M54.055,55.775c0.156,0.304,0.255,0.554,0.329,0.814
			c0.065,0.228,0.17,0.371,0.452,0.338c0.255-0.032,0.517-0.008,0.843-0.008c-0.33,0.239-0.606,0.439-0.884,0.639
			c-0.094,0.065-0.074,0.125-0.047,0.233c0.075,0.298,0.247,0.572,0.26,0.94c-0.279-0.193-0.528-0.35-0.76-0.53
			c-0.147-0.114-0.248-0.095-0.381,0.019c-0.201,0.171-0.421,0.32-0.673,0.51c-0.026-0.365,0.164-0.642,0.194-0.948
			c0.009-0.085,0.054-0.147-0.033-0.208c-0.28-0.203-0.561-0.406-0.902-0.654c0.379,0,0.696-0.01,1.013,0.006
			c0.166,0.007,0.239-0.06,0.284-0.205C53.841,56.429,53.937,56.14,54.055,55.775z"/>
		<path fill-rule="evenodd" clip-rule="evenodd" fill="#FEFEFE" d="M41.373,64.265c-0.343,0.248-0.622,0.451-0.903,0.653
			c-0.087,0.063-0.052,0.12-0.031,0.209c0.074,0.302,0.24,0.579,0.272,0.956c-0.286-0.196-0.535-0.351-0.765-0.531
			c-0.144-0.112-0.245-0.108-0.381,0.007c-0.202,0.172-0.42,0.324-0.662,0.506c-0.076-0.282,0.074-0.499,0.135-0.718
			c0.07-0.253,0.088-0.424-0.181-0.569c-0.232-0.126-0.431-0.312-0.703-0.513c0.365,0,0.68-0.011,0.994,0.004
			c0.178,0.008,0.252-0.058,0.299-0.226c0.079-0.29,0.187-0.571,0.299-0.906c0.169,0.275,0.249,0.533,0.327,0.79
			c0.074,0.241,0.188,0.381,0.478,0.345C40.797,64.24,41.051,64.265,41.373,64.265z"/>
		<path fill-rule="evenodd" clip-rule="evenodd" fill="#FEFEFE" d="M67.979,71.469c-0.108,0.029-0.138-0.06-0.195-0.098
			c-0.525-0.344-0.525-0.344-1.001,0.088c-0.044,0.041-0.078,0.105-0.174,0.067c0.048-0.2,0.072-0.415,0.153-0.605
			c0.063-0.152-0.002-0.237-0.097-0.284c-0.221-0.105-0.316-0.352-0.543-0.484c0.192,0,0.385-0.008,0.576,0.003
			c0.193,0.01,0.34-0.002,0.38-0.25c0.029-0.174,0.128-0.338,0.218-0.561c0.089,0.215,0.189,0.388,0.228,0.574
			c0.042,0.201,0.14,0.251,0.325,0.236c0.185-0.014,0.371-0.003,0.622-0.003c-0.158,0.144-0.251,0.252-0.386,0.337
			c-0.192,0.122-0.346,0.274-0.194,0.552C67.957,71.161,68.008,71.317,67.979,71.469z"/>
		<path fill-rule="evenodd" clip-rule="evenodd" fill="#FEFEFE" d="M71.944,67.327c-0.321-0.126-0.492-0.433-0.761-0.386
			c-0.235,0.042-0.412,0.278-0.595,0.443c-0.113-0.104-0.019-0.163,0.005-0.215c0.266-0.6-0.128-0.878-0.55-1.196
			c0.201,0,0.402-0.016,0.602,0.004c0.233,0.024,0.34-0.075,0.392-0.291c0.036-0.142,0.067-0.294,0.187-0.424
			c0.194,0.205,0.108,0.591,0.354,0.682c0.24,0.088,0.538,0.02,0.887,0.02c-0.222,0.181-0.384,0.326-0.56,0.452
			c-0.134,0.096-0.198,0.176-0.117,0.352C71.862,66.927,71.887,67.11,71.944,67.327z"/>
		<path fill-rule="evenodd" clip-rule="evenodd" fill="#FEFEFE" d="M60.924,68.991c0.034-0.092,0.073-0.181,0.1-0.273
			c0.137-0.489,0.135-0.489-0.296-0.805c-0.08-0.06-0.151-0.131-0.263-0.23c0.176,0,0.327-0.016,0.474,0.005
			c0.324,0.044,0.502-0.077,0.546-0.407c0.013-0.097,0.076-0.188,0.115-0.281c0.045-0.106,0.087-0.107,0.13,0.002
			c0.003,0.009,0.01,0.018,0.011,0.027c0.103,0.591,0.445,0.81,1.041,0.618c-0.016,0.046-0.443,1.287-0.462,1.344
			c-0.462-0.446-0.921-0.427-1.354,0.07C60.952,69.038,60.938,69.015,60.924,68.991z"/>
		<path fill-rule="evenodd" clip-rule="evenodd" fill="#FEFEFE" d="M56.884,69.212c-0.07-0.354,0.24-0.61,0.09-0.844
			c-0.138-0.212-0.396-0.344-0.658-0.559c0.237,0,0.419-0.019,0.598,0.005c0.247,0.032,0.386-0.052,0.446-0.297
			c0.039-0.161,0.11-0.314,0.169-0.478c0.116,0.051,0.069,0.136,0.086,0.198c0.148,0.571,0.148,0.571,0.752,0.571
			c0.094,0,0.188,0,0.343,0c-0.204,0.169-0.361,0.32-0.54,0.44c-0.154,0.105-0.199,0.197-0.098,0.374
			c0.086,0.151,0.119,0.332,0.158,0.554C57.771,68.676,57.325,68.679,56.884,69.212z"/>
		<path fill-rule="evenodd" clip-rule="evenodd" fill="#FEFEFE" d="M60.683,71.546c-0.224,0.147-0.33,0.393-0.554,0.493
			c-0.172,0.076-0.07,0.207-0.045,0.317c0.037,0.165,0.195,0.395,0.09,0.476c-0.116,0.09-0.307-0.117-0.416-0.221
			c-0.293-0.281-0.437,0.028-0.636,0.117c-0.078,0.035-0.113,0.194-0.219,0.122c-0.078-0.054,0.003-0.149,0.036-0.224
			c0.162-0.371,0.087-0.643-0.313-0.803c-0.108-0.044-0.192-0.151-0.312-0.248c0.233-0.063,0.461-0.046,0.676-0.023
			c0.249,0.027,0.344-0.099,0.381-0.297c0.026-0.14,0.06-0.273,0.116-0.418c0.169,0.092,0.174,0.268,0.203,0.397
			c0.058,0.26,0.193,0.335,0.439,0.313C60.313,71.531,60.498,71.546,60.683,71.546z"/>
		<path fill-rule="evenodd" clip-rule="evenodd" fill="#FEFEFE" d="M66.685,74.752c-0.04-0.067,0.025-0.098,0.036-0.145
			c0.157-0.644,0.157-0.644-0.59-1.163c0.207,0,0.358-0.016,0.505,0.004c0.321,0.044,0.503-0.073,0.545-0.405
			c0.012-0.088,0.067-0.17,0.104-0.253c0.02-0.043,0.018-0.116,0.091-0.096c0.028,0.008,0.042,0.062,0.063,0.094
			c0.129,0.209,0.075,0.555,0.337,0.641c0.228,0.074,0.498,0.015,0.75,0.015c0.018,0.09-0.062,0.079-0.092,0.097
			c-0.451,0.249-0.661,0.576-0.378,1.08c0.01,0.019-0.015,0.056-0.021,0.08c-0.113,0.026-0.147-0.075-0.215-0.116
			c-0.475-0.299-0.474-0.302-0.93,0.06c-0.031,0.026-0.066,0.049-0.103,0.067C66.755,74.728,66.718,74.738,66.685,74.752z"/>
		<path fill-rule="evenodd" clip-rule="evenodd" fill="#FEFEFE" d="M67.133,69.045c-0.495-0.399-0.941-0.432-1.389,0.033
			c-0.04-0.28,0.059-0.466,0.114-0.651c0.038-0.126,0.037-0.173-0.079-0.241c-0.207-0.121-0.402-0.266-0.658-0.439
			c0.263,0,0.469-0.022,0.669,0.007c0.252,0.036,0.357-0.101,0.421-0.295c0.053-0.162,0.082-0.331,0.18-0.473
			c0.033,0.015,0.061,0.018,0.067,0.03c0.104,0.237,0.04,0.596,0.279,0.706c0.215,0.101,0.514,0.021,0.771,0.021
			c0.028,0.083-0.038,0.069-0.063,0.082C66.943,68.099,66.714,68.453,67.133,69.045z"/>
		<path fill-rule="evenodd" clip-rule="evenodd" fill="#FEFEFE" d="M74.551,64.389c-0.257,0.182-0.446,0.318-0.638,0.452
			c-0.095,0.066-0.092,0.126-0.039,0.232c0.089,0.177,0.137,0.372,0.218,0.605c-0.292-0.114-0.464-0.39-0.723-0.386
			c-0.25,0.004-0.42,0.263-0.669,0.382c-0.03-0.233,0.065-0.42,0.122-0.605c0.04-0.127,0.035-0.172-0.079-0.239
			c-0.208-0.121-0.401-0.266-0.658-0.438c0.264,0,0.472-0.023,0.671,0.006c0.253,0.037,0.359-0.103,0.42-0.298
			c0.051-0.163,0.09-0.326,0.176-0.474c0.038,0.019,0.066,0.021,0.071,0.035c0.103,0.238,0.039,0.595,0.281,0.707
			C73.92,64.467,74.217,64.389,74.551,64.389z"/>
		<path fill-rule="evenodd" clip-rule="evenodd" fill="#FEFEFE" d="M76.001,62.072c-0.036-0.292,0.048-0.471,0.106-0.646
			c0.047-0.143,0.049-0.203-0.101-0.284c-0.185-0.099-0.337-0.258-0.546-0.424c0.187,0,0.34-0.018,0.486,0.004
			c0.33,0.048,0.495-0.087,0.546-0.411c0.02-0.123,0.095-0.238,0.146-0.355c0.04,0.016,0.068,0.018,0.073,0.029
			c0.106,0.238,0.042,0.598,0.281,0.709c0.215,0.101,0.514,0.021,0.771,0.021c0.029,0.083-0.038,0.068-0.064,0.083
			c-0.503,0.273-0.727,0.63-0.311,1.226C76.895,61.556,76.448,61.493,76.001,62.072z"/>
		<path fill-rule="evenodd" clip-rule="evenodd" fill="#FEFEFE" d="M58.711,50.657c0.41-0.021,0.844,0.142,0.805-0.485
			c0.211,0.14,0.103,0.424,0.309,0.47c0.17,0.036,0.355,0.007,0.537,0.007c0.02,0.159-0.134,0.151-0.201,0.198
			c-0.204,0.143-0.341,0.278-0.158,0.529c0.031,0.042,0.032,0.107-0.009,0.144c-0.051,0.047-0.095-0.006-0.132-0.037
			c-0.191-0.163-0.38-0.165-0.571,0c-0.072,0.061-0.211,0.08-0.146-0.042C59.38,50.997,59.005,50.887,58.711,50.657z"/>
		<path fill-rule="evenodd" clip-rule="evenodd" fill="#FEFEFE" d="M67.952,67.378c0.429,0.077,0.693-0.058,0.685-0.594
			c0.179,0.215,0.128,0.485,0.288,0.556c0.155,0.069,0.366,0.016,0.571,0.016c-0.126,0.192-0.404,0.194-0.451,0.355
			c-0.043,0.146,0.075,0.339,0.141,0.577c-0.326-0.247-0.65-0.285-0.992,0.034C68.37,67.689,68.37,67.689,67.952,67.378z"/>
		<path fill-rule="evenodd" clip-rule="evenodd" fill="#FEFEFE" d="M33.613,57.749c-0.039-0.012-0.087-0.012-0.116-0.035
			c-0.24-0.198-0.457-0.219-0.648,0.066c-0.013,0.019-0.056,0.017-0.149,0.042c0.233-0.405,0.145-0.692-0.28-0.885
			c0.429,0.058,0.723-0.052,0.696-0.616c0.184,0.237,0.137,0.505,0.303,0.577c0.155,0.068,0.361,0.015,0.623,0.015
			c-0.353,0.22-0.616,0.407-0.376,0.793C33.648,57.721,33.63,57.734,33.613,57.749z"/>
		<path fill-rule="evenodd" clip-rule="evenodd" fill="#FEFEFE" d="M35.512,61.928c-0.039-0.012-0.087-0.012-0.115-0.035
			c-0.24-0.199-0.458-0.218-0.648,0.066c-0.012,0.019-0.056,0.017-0.149,0.042c0.233-0.405,0.145-0.692-0.28-0.885
			c0.429,0.059,0.722-0.052,0.695-0.616c0.185,0.237,0.137,0.505,0.304,0.577c0.154,0.067,0.36,0.015,0.622,0.015
			c-0.353,0.219-0.616,0.407-0.376,0.793C35.547,61.898,35.529,61.913,35.512,61.928z"/>
		<path fill-rule="evenodd" clip-rule="evenodd" fill="#FEFEFE" d="M50.517,60.978c-0.038-0.011-0.087-0.011-0.115-0.034
			c-0.239-0.199-0.457-0.22-0.647,0.065c-0.013,0.02-0.057,0.018-0.15,0.043c0.234-0.406,0.146-0.692-0.279-0.885
			c0.429,0.058,0.722-0.053,0.695-0.616c0.185,0.237,0.137,0.505,0.304,0.577c0.155,0.066,0.36,0.015,0.623,0.015
			c-0.354,0.219-0.616,0.407-0.377,0.792C50.552,60.949,50.534,60.964,50.517,60.978z"/>
		<path fill-rule="evenodd" clip-rule="evenodd" fill="#FEFEFE" d="M27.535,60.978c-0.039-0.011-0.087-0.011-0.115-0.034
			c-0.24-0.199-0.458-0.22-0.648,0.065c-0.013,0.02-0.056,0.018-0.149,0.042c0.233-0.405,0.145-0.691-0.28-0.884
			c0.429,0.058,0.723-0.053,0.696-0.616c0.184,0.237,0.137,0.505,0.304,0.577c0.154,0.066,0.361,0.015,0.623,0.015
			c-0.353,0.219-0.616,0.407-0.376,0.792C27.57,60.949,27.552,60.964,27.535,60.978z"/>
		<path fill-rule="evenodd" clip-rule="evenodd" fill="#FEFEFE" d="M34.562,64.966c-0.039-0.01-0.086-0.011-0.115-0.034
			c-0.24-0.198-0.457-0.219-0.647,0.066c-0.013,0.02-0.057,0.017-0.15,0.042c0.234-0.406,0.146-0.691-0.279-0.885
			c0.429,0.058,0.722-0.052,0.696-0.616c0.184,0.238,0.137,0.504,0.304,0.577c0.154,0.067,0.36,0.014,0.622,0.014
			c-0.353,0.221-0.616,0.408-0.376,0.793C34.598,64.938,34.58,64.951,34.562,64.966z"/>
		<path fill-rule="evenodd" clip-rule="evenodd" fill="#FEFEFE" d="M50.878,73.488c0.092,0.348,0.244,0.566,0.708,0.418
			c-0.212,0.279-0.624,0.414-0.272,0.81c-0.288-0.148-0.53-0.31-0.804,0.001c0.22-0.391-0.015-0.575-0.293-0.766
			C50.612,74.055,50.808,73.883,50.878,73.488z"/>
		<path fill-rule="evenodd" clip-rule="evenodd" fill="#FEFEFE" d="M27.588,60.935c0.02,0.029,0.038,0.058,0.058,0.087
			c-0.052,0.024-0.091,0.016-0.111-0.044C27.552,60.964,27.57,60.949,27.588,60.935z"/>
		<path fill-rule="evenodd" clip-rule="evenodd" fill="#FEFEFE" d="M50.569,60.935c0.02,0.029,0.039,0.058,0.059,0.087
			c-0.053,0.024-0.092,0.016-0.111-0.044C50.534,60.964,50.552,60.949,50.569,60.935z"/>
		<path fill-rule="evenodd" clip-rule="evenodd" fill="#FEFEFE" d="M35.565,61.885c0.019,0.028,0.039,0.057,0.058,0.086
			c-0.052,0.025-0.092,0.016-0.111-0.043C35.529,61.913,35.547,61.898,35.565,61.885z"/>
		<path fill-rule="evenodd" clip-rule="evenodd" fill="#FEFEFE" d="M33.666,57.706c0.02,0.028,0.039,0.058,0.058,0.086
			c-0.053,0.024-0.091,0.017-0.111-0.043C33.63,57.734,33.648,57.721,33.666,57.706z"/>
		<path fill-rule="evenodd" clip-rule="evenodd" fill="#FEFEFE" d="M34.615,64.923c0.019,0.028,0.039,0.058,0.058,0.086
			c-0.052,0.025-0.091,0.017-0.111-0.043C34.58,64.951,34.598,64.938,34.615,64.923z"/>
		<path fill-rule="evenodd" clip-rule="evenodd" fill="#FEFEFE" d="M58.872,40.459c0.346,0,0.641-0.009,0.936,0.003
			c0.189,0.008,0.296-0.032,0.346-0.244c0.066-0.284,0.183-0.555,0.291-0.868c0.181,0.232,0.258,0.487,0.321,0.728
			c0.081,0.305,0.225,0.423,0.537,0.386c0.229-0.027,0.462-0.005,0.745-0.005c-0.291,0.228-0.538,0.443-0.811,0.622
			c-0.124,0.081-0.152,0.119-0.087,0.257c0.094,0.201,0.145,0.422,0.226,0.63c0.024,0.062,0.059,0.124,0.015,0.173
			c-0.073,0.082-0.137-0.021-0.185-0.046c-0.163-0.086-0.323-0.185-0.462-0.303c-0.216-0.182-0.409-0.139-0.598,0.028
			c-0.177,0.156-0.411,0.23-0.587,0.48c-0.021-0.39,0.17-0.656,0.219-0.958c0.021-0.134,0.035-0.177-0.089-0.259
			C59.416,40.903,59.165,40.688,58.872,40.459z"/>
		<path fill-rule="evenodd" clip-rule="evenodd" fill="#008300" d="M39.475,43.32c0.157-0.399,0.32-0.795,0.469-1.197
			c0.138-0.372,0.251-0.752,0.393-1.123c0.112-0.292,0.375-0.139,0.571-0.153c0.204-0.016,0.115,0.168,0.111,0.257
			c-0.034,0.897-0.084,1.794-0.118,2.691c-0.006,0.172-0.103,0.14-0.206,0.149c-0.135,0.013-0.191-0.032-0.18-0.174
			c0.032-0.395-0.019-0.789,0.051-1.189c0.061-0.348,0.013-0.714-0.021-1.083c-0.198,0.559-0.397,1.118-0.595,1.677
			c-0.047,0.134-0.102,0.268-0.13,0.407c-0.056,0.274-0.231,0.325-0.477,0.301c-0.136-0.014-0.19-0.053-0.225-0.197
			c-0.186-0.769-0.39-1.535-0.61-2.3c0.036,0.751-0.118,1.492-0.079,2.241c0.009,0.169-0.005,0.261-0.226,0.262
			c-0.228,0.001-0.229-0.105-0.22-0.267c0.044-0.896,0.088-1.793,0.125-2.69c0.005-0.127,0.05-0.147,0.166-0.159
			c0.31-0.033,0.503,0.011,0.581,0.389C39.003,41.878,39.298,42.561,39.475,43.32z"/>
		<path fill-rule="evenodd" clip-rule="evenodd" fill="#008300" d="M55.98,44.892c0.474,0.474,0.489,1.065,0.738,1.548
			c-0.344,0.14-0.478-0.036-0.559-0.32c-0.076-0.264-0.185-0.518-0.254-0.783c-0.104-0.398-0.428-0.521-0.759-0.63
			c-0.156-0.051-0.281,0.006-0.319,0.189c-0.062,0.29-0.134,0.578-0.191,0.868c-0.041,0.207-0.183,0.233-0.345,0.2
			c-0.226-0.047-0.052-0.176-0.034-0.259c0.186-0.827,0.383-1.651,0.565-2.479c0.042-0.188,0.127-0.259,0.317-0.236
			c0.54,0.067,1.058,0.23,1.573,0.389c0.196,0.061,0.392,0.615,0.325,0.877c-0.112,0.434-0.322,0.596-0.66,0.633
			C56.269,44.902,56.155,44.892,55.98,44.892z M54.948,44.372c0.406,0,0.772,0.177,1.177,0.148c0.239-0.017,0.453-0.047,0.484-0.309
			c0.024-0.208,0.018-0.409-0.261-0.538c-0.277-0.129-0.563-0.169-0.847-0.231c-0.191-0.042-0.367-0.031-0.375,0.268
			C55.12,43.926,55.014,44.14,54.948,44.372z"/>
		<path fill-rule="evenodd" clip-rule="evenodd" fill="#008300" d="M31.278,42.538c0.059-0.462-0.108-0.915-0.065-1.376
			c0.006-0.073-0.043-0.206,0.09-0.189c0.518,0.067,1.026-0.116,1.55-0.018c0.515,0.097,0.739,0.461,0.871,0.88
			c0.15,0.478,0.121,0.978-0.063,1.457c-0.138,0.357-0.411,0.572-0.769,0.642c-0.457,0.089-0.931,0.042-1.391,0.134
			c-0.118,0.023-0.176-0.023-0.164-0.153C31.381,43.453,31.203,43.001,31.278,42.538z M31.718,43.033
			c0,0.105,0.011,0.212-0.003,0.315c-0.028,0.211,0.032,0.287,0.264,0.287c0.233,0,0.45-0.074,0.678-0.073
			c0.261,0,0.46-0.114,0.582-0.342c0.229-0.429,0.192-0.891,0.061-1.322c-0.148-0.489-0.387-0.615-0.886-0.615
			c-0.179,0-0.358,0.012-0.536-0.003c-0.177-0.014-0.224,0.045-0.229,0.224C31.633,42.016,31.695,42.523,31.718,43.033z"/>
		<path fill-rule="evenodd" clip-rule="evenodd" fill="#008300" d="M30.502,44.238c-0.318,0.082-0.491-0.03-0.67-0.291
			c-0.223-0.324-0.45-0.671-0.802-0.887c-0.251-0.153-0.533-0.067-0.796-0.051c-0.129,0.007-0.082,0.216-0.051,0.299
			c0.114,0.302-0.011,0.624,0.109,0.924c0.04,0.098,0.036,0.231-0.156,0.221c-0.143-0.008-0.209-0.015-0.226-0.198
			c-0.071-0.775-0.14-1.549-0.186-2.327c-0.038-0.643-0.054-0.655,0.594-0.641c0.437,0.009,0.879-0.076,1.31,0.057
			c0.29,0.09,0.497,0.403,0.506,0.751c0.007,0.247-0.227,0.637-0.453,0.701c-0.304,0.086-0.211,0.182-0.042,0.326
			C30.003,43.435,30.261,43.831,30.502,44.238z M28.631,42.676c0.237,0.075,0.483-0.082,0.739-0.14
			c0.205-0.047,0.377-0.235,0.358-0.461c-0.015-0.186-0.132-0.333-0.346-0.427c-0.274-0.12-0.506,0.078-0.76,0.018
			c-0.188-0.044-0.392,0.004-0.538,0.092c-0.145,0.086,0.064,0.259,0.025,0.402c-0.002,0.01,0,0.021,0,0.031
			C28.123,42.676,28.123,42.676,28.631,42.676z"/>
		<path fill-rule="evenodd" clip-rule="evenodd" fill="#008300" d="M66.455,48.374c0.297,0.505,0.28,1.039,0.397,1.539
			c0.013,0.052-0.043,0.135-0.07,0.098c-0.08-0.111-0.284,0.049-0.313-0.178c-0.04-0.323-0.132-0.64-0.181-0.962
			c-0.068-0.435-0.416-0.816-0.819-0.875c-0.162-0.023-0.195,0.105-0.235,0.203c-0.103,0.253-0.181,0.518-0.291,0.768
			c-0.04,0.089-0.039,0.254-0.239,0.205c-0.2-0.049-0.272-0.068-0.157-0.313c0.332-0.708,0.623-1.436,0.912-2.163
			c0.178-0.444,0.159-0.418,0.627-0.297c0.404,0.104,0.734,0.353,1.124,0.479c0.217,0.069,0.442,0.556,0.396,0.763
			c-0.101,0.463-0.368,0.733-0.728,0.734C66.753,48.374,66.627,48.374,66.455,48.374z M65.469,47.641
			c0.209,0.075,0.425,0.137,0.625,0.23c0.233,0.107,0.474,0.127,0.725,0.127c0.184,0,0.268-0.107,0.312-0.25
			c0.043-0.136,0.084-0.252-0.048-0.411c-0.268-0.325-0.668-0.361-0.994-0.552c-0.207-0.121-0.282-0.016-0.347,0.144
			C65.646,47.164,65.559,47.402,65.469,47.641z"/>
		<path fill-rule="evenodd" clip-rule="evenodd" fill="#008300" d="M62.834,47.285c0.062-0.372,0.244-0.432,0.561-0.247
			c0.209,0.122,0.448,0.192,0.673,0.29c0.083,0.036,0.166,0.054,0.082,0.194c-0.114,0.19-0.188,0.405-0.27,0.614
			c-0.1,0.256-0.293,0.344-0.552,0.368c-0.748,0.069-1.343-0.212-1.817-0.772c-0.074-0.088-0.113-0.214-0.146-0.33
			c-0.184-0.655,0.25-1.665,0.877-1.93c0.502-0.212,1.012-0.165,1.495,0.126c0.368,0.221,0.642,0.478,0.589,0.952
			c-0.01,0.098,0.01,0.189-0.142,0.181c-0.125-0.008-0.236-0.014-0.24-0.177c-0.003-0.162,0.035-0.339-0.12-0.455
			c-0.28-0.212-0.576-0.377-0.948-0.389c-0.555-0.017-0.97,0.494-1.09,0.927c-0.077,0.282-0.007,0.55,0.01,0.823
			c0.015,0.234,0.221,0.3,0.39,0.389c0.376,0.197,0.746,0.36,1.197,0.22c0.247-0.076,0.24-0.281,0.286-0.431
			c0.038-0.125-0.161-0.132-0.271-0.166C63.204,47.412,63.034,47.282,62.834,47.285z"/>
		<path fill-rule="evenodd" clip-rule="evenodd" fill="#008300" d="M77.97,56.098c-0.852,0-1.491-0.612-1.491-1.426
			c0-0.803,0.815-1.671,1.57-1.677c0.541-0.005,1.585,0.67,1.53,1.415C79.521,55.195,78.933,56.163,77.97,56.098z M79.139,54.465
			c0.071-0.615-0.586-1.072-1.085-1.081c-0.49-0.007-1.186,0.67-1.207,1.31c-0.017,0.485,0.599,1.019,1.065,1.042
			C78.527,55.768,79.177,55.025,79.139,54.465z"/>
		<path fill-rule="evenodd" clip-rule="evenodd" fill="#008300" d="M67.623,50.482c0.348-0.828,0.698-1.663,1.043-2.5
			c0.091-0.222,0.176-0.378,0.468-0.246c0.51,0.231,1.034,0.428,1.548,0.65c0.058,0.026,0.242,0.027,0.117,0.204
			c-0.068,0.097-0.078,0.188-0.247,0.115c-0.4-0.172-0.826-0.289-1.225-0.466c-0.252-0.112-0.366-0.033-0.442,0.193
			c-0.01,0.029,0,0.065-0.01,0.093c-0.057,0.151-0.204,0.379-0.155,0.435c0.11,0.124,0.317,0.162,0.485,0.235
			c0.309,0.133,0.618,0.263,0.924,0.402c0.081,0.037,0.198,0.054,0.094,0.215c-0.081,0.125-0.116,0.148-0.258,0.088
			c-0.381-0.166-0.785-0.282-1.159-0.462c-0.223-0.107-0.282,0.005-0.346,0.156c-0.094,0.225-0.175,0.455-0.267,0.694
			c0.494,0.203,0.999,0.404,1.496,0.621c0.069,0.029,0.267-0.009,0.167,0.203c-0.074,0.16-0.14,0.178-0.302,0.111
			C68.914,50.967,68.268,50.729,67.623,50.482z"/>
		<path fill-rule="evenodd" clip-rule="evenodd" fill="#008300" d="M25.328,44.701c-0.821,0.082-1.465-0.563-1.467-1.622
			c-0.001-0.906,0.555-1.503,1.516-1.479c0.88,0.022,1.394,0.619,1.395,1.626C26.772,44.063,26.28,44.742,25.328,44.701z
			 M25.305,44.321c0.656,0.119,1.139-0.569,1.092-1.055c-0.068-0.701-0.343-1.313-1.044-1.292c-0.742,0.021-1.094,0.348-1.109,1.05
			C24.226,43.817,24.68,44.426,25.305,44.321z"/>
		<path fill-rule="evenodd" clip-rule="evenodd" fill="#008300" d="M59.268,44.068c0.792-0.089,1.534,0.682,1.505,1.422
			c-0.033,0.907-0.621,1.661-1.485,1.678c-0.845,0.017-1.571-0.64-1.537-1.393C57.785,45.02,58.273,43.97,59.268,44.068z
			 M59.271,46.791c0.602-0.004,1.181-0.654,1.114-1.345c-0.051-0.513-0.308-1.056-1.254-1.002c-0.521,0.029-1.024,0.686-1.013,1.37
			C58.128,46.332,58.676,46.795,59.271,46.791z"/>
		<path fill-rule="evenodd" clip-rule="evenodd" fill="#008300" d="M35.743,40.839c0.306,0,0.612,0.009,0.917-0.003
			c0.16-0.007,0.188,0.053,0.191,0.199c0.003,0.162-0.06,0.19-0.202,0.188c-0.442-0.008-0.886,0.011-1.328-0.008
			c-0.218-0.009-0.259,0.069-0.254,0.266c0.006,0.199,0.097,0.381,0.075,0.586c-0.017,0.163,0.131,0.099,0.208,0.1
			c0.421,0.007,0.843,0.001,1.265,0.005c0.102,0.001,0.233-0.053,0.237,0.148c0.003,0.188-0.103,0.167-0.22,0.167
			c-0.439,0.001-0.876-0.009-1.314,0.054c-0.157,0.022-0.181,0.068-0.186,0.207c-0.008,0.242,0.097,0.468,0.073,0.712
			c-0.015,0.161,0.133,0.098,0.211,0.099c0.464,0.005,0.928,0.001,1.392,0.003c0.097,0.001,0.2-0.034,0.256,0.108
			c0.059,0.149,0.052,0.213-0.126,0.209c-0.285-0.006-0.57,0.015-0.854-0.006c-0.358-0.027-0.705,0.087-1.061,0.066
			c-0.082-0.005-0.22,0.049-0.199-0.114c0.031-0.255-0.07-0.491-0.073-0.744c-0.008-0.635-0.041-1.269-0.121-1.899
			c-0.033-0.253,0.019-0.389,0.324-0.351C35.213,40.866,35.479,40.839,35.743,40.839z"/>
		<path fill-rule="evenodd" clip-rule="evenodd" fill="#008300" d="M73.761,52.947c0.019-0.116-0.028-0.237,0.043-0.362
			c0.075-0.131,0.122-0.189,0.286-0.122c0.166,0.066,0.147,0.142,0.09,0.271c-0.137,0.311,0.012,0.579,0.209,0.782
			c0.231,0.237,0.527,0.411,0.891,0.266c0.271-0.107,0.34-0.437,0.138-0.656c-0.271-0.294-0.55-0.571-0.75-0.933
			c-0.142-0.254-0.102-0.463-0.009-0.684c0.108-0.257,0.33-0.369,0.6-0.416c0.499-0.088,1.273,0.488,1.396,1.059
			c0.03,0.146-0.055,0.316-0.09,0.474c-0.029,0.134-0.104,0.141-0.192,0.054c-0.063-0.062-0.275-0.004-0.169-0.201
			c0.146-0.268-0.001-0.462-0.163-0.648c-0.213-0.246-0.462-0.429-0.812-0.352c-0.273,0.063-0.321,0.338-0.176,0.588
			c0.177,0.304,0.442,0.525,0.645,0.804c0.242,0.335,0.294,0.811,0.078,1.051c-0.272,0.302-0.891,0.381-1.223,0.15
			c-0.16-0.11-0.335-0.198-0.475-0.342C73.864,53.511,73.694,53.281,73.761,52.947z"/>
		<path fill-rule="evenodd" clip-rule="evenodd" fill="#008300" d="M73.63,50.487c0,0.059,0.001,0.091,0,0.122
			c-0.003,0.223-0.031,0.291-0.112,0.263c-0.135-0.05-0.279-0.079-0.275-0.302c0.01-0.478-0.554-0.902-1.027-0.804
			c-0.208,0.044-0.289,0.331-0.181,0.591c0.096,0.229,0.305,0.343,0.481,0.487c0.195,0.161,0.376,0.349,0.471,0.569
			c0.258,0.605-0.129,1.012-0.707,1.133c-0.469,0.099-1.29-0.472-1.399-0.931c-0.041-0.17-0.044-0.333-0.028-0.495
			c0.031-0.318,0.109-0.34,0.389-0.176c0.078,0.047,0.092,0.068,0.049,0.146c-0.22,0.41,0.084,0.723,0.46,0.942
			c0.212,0.124,0.47,0.272,0.729,0.002c0.203-0.213,0.235-0.409,0.033-0.635c-0.269-0.302-0.628-0.516-0.826-0.884
			c-0.137-0.256-0.141-0.531-0.016-0.768c0.149-0.284,0.493-0.367,0.793-0.315c0.431,0.075,0.786,0.246,1.043,0.614
			C73.609,50.196,73.645,50.344,73.63,50.487z"/>
		<path fill-rule="evenodd" clip-rule="evenodd" fill="#008300" d="M52.899,44.258c-0.294,0.062-0.586-0.142-0.912-0.133
			c-0.16,0.003-0.251,0.07-0.255,0.199c-0.007,0.241-0.131,0.455-0.135,0.694c-0.004,0.219-0.128,0.285-0.326,0.254
			c-0.27-0.042-0.066-0.19-0.05-0.275c0.162-0.854,0.332-1.706,0.508-2.556c0.017-0.078,0.022-0.218,0.146-0.203
			c0.581,0.074,1.181,0.122,1.68,0.456c0.315,0.211,0.394,0.594,0.274,0.885C53.605,44.128,53.435,44.258,52.899,44.258z
			 M52.787,43.878c0.079,0,0.133,0.001,0.185,0c0.391-0.01,0.619-0.398,0.44-0.747c-0.135-0.265-1.006-0.579-1.257-0.447
			c-0.073,0.039-0.106,0.127-0.11,0.206c-0.014,0.247-0.062,0.487-0.126,0.724c-0.016,0.058-0.019,0.137,0.077,0.135
			C52.277,43.742,52.527,43.927,52.787,43.878z"/>
		<path fill-rule="evenodd" clip-rule="evenodd" fill="#008300" d="M46.705,44.417c-0.554-0.061-1.097-0.121-1.656-0.182
			c0.072-0.626,0.144-1.265,0.218-1.902c0.021-0.182,0.01-0.32,0.309-0.249c0.376,0.089,0.776,0.102,1.166,0.139
			c0.244,0.022,0.168,0.167,0.168,0.281c0,0.185-0.173,0.126-0.232,0.099c-0.227-0.103-0.472-0.021-0.702-0.109
			c-0.221-0.085-0.304,0.085-0.326,0.275c-0.026,0.221,0.121,0.236,0.282,0.224c0.231-0.018,0.446,0.097,0.681,0.067
			c0.162-0.021,0.1,0.122,0.11,0.202c0.014,0.104,0.003,0.192-0.142,0.175c-0.267-0.032-0.542-0.033-0.799-0.099
			c-0.173-0.045-0.179-0.006-0.204,0.142c-0.052,0.316-0.072,0.552,0.382,0.479c0.107-0.018,0.259,0.053,0.393,0.044
			C46.646,43.984,46.786,44.094,46.705,44.417z"/>
		<path fill-rule="evenodd" clip-rule="evenodd" fill="#FEFEFE" d="M54.948,44.372c0.065-0.231,0.172-0.445,0.179-0.662
			c0.008-0.299,0.184-0.31,0.375-0.268c0.283,0.062,0.569,0.102,0.847,0.231c0.278,0.128,0.285,0.33,0.261,0.538
			c-0.031,0.262-0.245,0.292-0.484,0.309C55.721,44.549,55.354,44.372,54.948,44.372z"/>
		<path fill-rule="evenodd" clip-rule="evenodd" fill="#FEFEFE" d="M31.718,43.033c-0.023-0.51-0.085-1.017-0.069-1.53
			c0.005-0.179,0.052-0.238,0.229-0.224c0.177,0.015,0.357,0.003,0.536,0.003c0.5,0,0.738,0.126,0.886,0.615
			c0.131,0.431,0.167,0.894-0.061,1.322c-0.121,0.228-0.32,0.342-0.582,0.342c-0.228-0.001-0.445,0.073-0.678,0.073
			c-0.232,0-0.292-0.076-0.264-0.287C31.729,43.245,31.718,43.139,31.718,43.033z"/>
		<path fill-rule="evenodd" clip-rule="evenodd" fill="#FEFEFE" d="M28.631,42.676c-0.508,0-0.508,0-0.522-0.485
			c0-0.01-0.002-0.021,0-0.031c0.039-0.143-0.17-0.315-0.025-0.402c0.146-0.088,0.351-0.137,0.538-0.092
			c0.254,0.06,0.486-0.138,0.76-0.018c0.214,0.094,0.331,0.241,0.346,0.427c0.019,0.226-0.154,0.414-0.358,0.461
			C29.114,42.594,28.868,42.75,28.631,42.676z"/>
		<path fill-rule="evenodd" clip-rule="evenodd" fill="#FEFEFE" d="M65.469,47.64c0.09-0.238,0.177-0.476,0.272-0.711
			c0.064-0.16,0.14-0.265,0.347-0.144c0.326,0.19,0.727,0.227,0.994,0.552c0.132,0.159,0.091,0.275,0.048,0.411
			c-0.044,0.143-0.128,0.25-0.312,0.25c-0.251,0-0.491-0.02-0.725-0.127C65.894,47.778,65.678,47.716,65.469,47.64z"/>
		<path fill-rule="evenodd" clip-rule="evenodd" fill="#FEFEFE" d="M79.139,54.465c0.038,0.561-0.611,1.303-1.227,1.271
			c-0.467-0.023-1.082-0.557-1.065-1.042c0.021-0.64,0.717-1.316,1.207-1.31C78.553,53.393,79.21,53.85,79.139,54.465z"/>
		<path fill-rule="evenodd" clip-rule="evenodd" fill="#FEFEFE" d="M25.305,44.321c-0.625,0.104-1.079-0.504-1.061-1.297
			c0.015-0.702,0.367-1.028,1.109-1.05c0.701-0.021,0.976,0.591,1.044,1.292C26.444,43.752,25.961,44.44,25.305,44.321z"/>
		<path fill-rule="evenodd" clip-rule="evenodd" fill="#FEFEFE" d="M59.271,46.791c-0.596,0.004-1.144-0.459-1.152-0.977
			c-0.012-0.685,0.491-1.341,1.013-1.37c0.946-0.054,1.203,0.489,1.254,1.002C60.452,46.136,59.873,46.787,59.271,46.791z"/>
		<path fill-rule="evenodd" clip-rule="evenodd" fill="#FEFEFE" d="M52.787,43.878c-0.26,0.048-0.51-0.136-0.791-0.129
			c-0.096,0.002-0.093-0.077-0.077-0.135c0.064-0.237,0.112-0.477,0.126-0.724c0.004-0.079,0.037-0.167,0.11-0.206
			c0.251-0.132,1.122,0.183,1.257,0.447c0.179,0.349-0.05,0.736-0.44,0.747C52.92,43.879,52.866,43.878,52.787,43.878z"/>
	</g>
</g>
</svg>
