<?xml version="1.0" encoding="utf-8"?>
<!-- Generator: Adobe Illustrator 16.0.0, SVG Export Plug-In . SVG Version: 6.00 Build 0)  -->
<!DOCTYPE svg PUBLIC "-//W3C//DTD SVG 1.1//EN" "http://www.w3.org/Graphics/SVG/1.1/DTD/svg11.dtd">
<svg version="1.1" id="Layer_1" xmlns="http://www.w3.org/2000/svg" xmlns:xlink="http://www.w3.org/1999/xlink" x="0px" y="0px"
	 width="117px" height="104px" viewBox="0 0 117 104" enable-background="new 0 0 117 104" xml:space="preserve">
<path fill="#0096D1" d="M59.625,0c28.855,0,52.25,23.281,52.25,52.001c0,28.717-23.395,51.999-52.25,51.999
	c-28.856,0-52.25-23.282-52.25-51.999C7.375,23.281,30.769,0,59.625,0z"/>
<g>
	<path fill="#FFFFFF" d="M109.625,51.666c0,13.656-4.907,25.305-14.72,34.945c-9.814,9.677-21.564,14.515-35.254,14.515
		c-13.69,0-25.427-4.753-35.204-14.256C14.566,77.296,9.625,65.682,9.625,52.025c0-13.654,4.941-25.287,14.822-34.895
		C34.226,7.627,45.961,2.877,59.651,2.875c13.688,0,25.405,4.684,35.15,14.05C104.684,26.431,109.625,38.011,109.625,51.666z
		 M104.744,51.389c0-12.124-4.479-22.515-13.431-31.175c-8.889-8.563-19.41-12.841-31.566-12.843l-4.901,10.048l5.344,1.078
		l4.166-4.166l7.353,0.489l1.471,3.922l-4.411,4.41V25.8l2.745,0.539l1.274-2.06l4.853-3.039l-0.146,2.06l1.813,3.137L77.15,28.69
		l1.372,1.324l-3.235,0.196l1.324,2.646l-7.011,3.333l1.078,3.972h-2.206l-0.979-3.922l-5.146-0.098l-0.932,1.521l-2.107-0.98
		l-3.432,3.431l2.745,3.284l-0.098,3.628l2.892,2.156l16.861,1.912l5.343,3.774l-0.638,9.362L71.364,75.846
		c-0.752,0.754-1.487,2.844-2.206,6.275c-0.688,3.234-0.932,5.538-0.734,6.91l-1.765,2.01c-1.373-2.712-3.154-6.879-5.344-12.499
		c-0.523-1.927-0.979-4.378-1.372-7.353c-0.294-2.451-0.588-4.916-0.883-7.4l-7.353-6.471l6.52-7.695l-2.695-3.873
		c-4.151-0.85-6.848-1.602-8.088-2.254c-1.242-0.688-3.383-2.564-6.421-5.638l2.549,4.95l-1.716,0.735l-3.971-7.451l0.784-6.96
		l-1.226-4.902l-3.823-3.725l-2.794-0.687l-2.451,1.716l-2.695,0.687c-7.418,8.564-11.126,18.399-11.126,29.509
		c0,12.418,4.443,22.957,13.333,31.615c8.789,8.561,19.408,12.84,31.859,12.842c12.45,0,23.053-4.362,31.812-13.088
		C100.348,74.376,104.742,63.805,104.744,51.389z"/>
</g>
</svg>
